<?xml version="1.0" encoding="UTF-8"?>
<!DOCTYPE svg PUBLIC "-//W3C//DTD SVG 1.1//EN" "http://www.w3.org/Graphics/SVG/1.1/DTD/svg11.dtd">
<!-- Creator: CorelDRAW 2020 (64-Bit) -->
<svg xmlns="http://www.w3.org/2000/svg" xml:space="preserve" width="153.811mm" height="110.419mm" version="1.1" style="shape-rendering:geometricPrecision; text-rendering:geometricPrecision; image-rendering:optimizeQuality; fill-rule:evenodd; clip-rule:evenodd"
viewBox="0 0 15381.1 11041.94"
 xmlns:xlink="http://www.w3.org/1999/xlink"
 xmlns:xodm="http://www.corel.com/coreldraw/odm/2003">
 <defs>
  <style type="text/css">
   <![CDATA[
    .fil0 {fill:#BF9D57}
    .fil1 {fill:#FEFEFE;fill-rule:nonzero}
    .fil2 {fill:#FEFEFE;fill-rule:nonzero}
   ]]>
  </style>
 </defs>
 <g id="Ebene_x0020_1">
  <metadata id="CorelCorpID_0Corel-Layer"/>
  <polygon class="fil0" points="15396.53,-53.93 -5.66,-53.93 -5.66,11046.07 15396.53,11046.07 "/>
  <path class="fil1" d="M5898.71 6501.8c-19.67,-66.15 -54.53,-127.74 -99.48,-180.09 -37.52,-43.75 -86.89,-78.47 -134.73,-110.34 -22.38,-14.84 -45.69,-28.04 -69.5,-40.32 -41.76,-21.35 -85.16,-41.74 -129.72,-56.29 -72.65,-23.82 -150.3,-35.13 -226.28,-43.81 -51.46,-5.87 -104.12,-11.13 -156.02,-12.16 -132.66,-2.6 -263.7,20.62 -395.13,36.09 -10.04,1.18 -20.05,2.44 -30.07,3.66 12.54,-80.97 26.61,-161.6 41.58,-242.37 11.39,-61.64 23.1,-123.42 35.07,-184.97 11.26,-57.7 28.66,-114.62 43.81,-171.43 37.43,-140.74 71.47,-282.89 115.28,-421.87 21.87,-69.09 44.26,-137.95 66.08,-207.04 18.56,-58.04 37.51,-115.4 60.82,-171.6 19.88,-43.72 40.2,-87.16 62.2,-129.87 15.75,-21.54 19.87,-45.13 12.56,-70.81 -12.07,-43.41 -55.99,-73.41 -94.97,-89.72 -31.49,-12.77 -64.22,-19.1 -97.99,-19.1 -3.03,0 -6.07,0.03 -9.12,0.15 -16.48,2.56 -32.99,5.15 -49.36,7.74 -28.36,7.1 -51.85,21.86 -70.54,44.21 -35.77,69.38 -69.16,140.65 -98.64,212.93 -22.18,54.51 -39.62,110.59 -57.45,166.71 -37.55,118.25 -76.58,235.98 -108.54,355.98 -31.78,119.28 -64.55,238.44 -94.88,358.18 -30.51,120.73 -49.77,244 -73.51,366.19 -15.94,82.07 -28.44,164.9 -38.75,248.08 -55.5,9.21 -111.4,16.29 -166.83,25.98 -62.47,10.93 -124.34,24.65 -186.42,38.05 -56.99,12.25 -114.21,25.55 -170.22,41.97 -43.23,12.78 -85.39,29.02 -128.99,40.73 -16.94,3.73 -34.01,7.12 -51.06,10.27 30.06,-190.02 65.18,-379.36 106.86,-567.22 27.42,-123.3 59.16,-245.69 87.92,-368.76 29.2,-124.56 61.67,-247.35 100.54,-369.31 37.84,-118.55 76.71,-236.43 110.02,-356.4 36.17,-130.01 79.39,-257.66 118.85,-386.64 3.1,-9.98 6.09,-19.9 9.1,-29.88 3.27,-26.92 -3.72,-50.94 -21.05,-71.88 -29.58,-39.58 -81.89,-61.75 -128.88,-70.01 -14.54,-2.64 -29.09,-4 -43.52,-4 -20.24,0 -40.38,2.65 -60.4,7.94 -42.25,12.56 -72.37,35.26 -85.36,78.16 -39.7,131.23 -84.75,261.01 -121.46,393.21 -33.62,121.25 -71.13,240.84 -110.21,360.41 -39.5,120.55 -72.88,242.18 -101.45,365.69 -28.44,123.11 -59.08,245.82 -87.96,368.78 -29.88,127.65 -54.91,256.74 -77.82,385.8 -18.61,104.73 -33.98,209.88 -50.52,314.9 -55.32,7.04 -111.05,9.96 -166.69,12.94 -63.56,3.42 -127.11,8.46 -190.74,11.2 -60.08,-2.3 -119.31,-8.4 -179.07,-15.94 -61.24,-7.85 -122.74,-13.26 -183.87,-21.45 -22.89,-5.91 -45.28,-12.9 -67.52,-21.23 -13.64,-7.26 -26.76,-15.17 -39.5,-23.91 -25.1,-23.04 -48.01,-48.32 -67.72,-76.11 -16.56,-27.67 -31.22,-56.06 -42.74,-86.49 -14.22,-37.24 -23.76,-75.53 -30.97,-114.51 -3.47,-30.66 -5.72,-61.23 -7.1,-92.19 -0.72,-18.34 -0.51,-36.72 0.34,-55.07 1.5,-34.66 7.58,-67.3 17.18,-100.25 42.85,-108.46 97.84,-212.09 160.22,-310.61 39.39,-62.16 -30.91,-117.09 -83.1,-134.24 -20.76,-6.79 -45.53,-10.87 -70.66,-10.87 -48.95,0 -99.42,15.39 -125.12,55.63 -36.48,57.44 -71.54,115.4 -103.08,175.69 -48.87,93.39 -105.49,187.76 -117.94,294.24 -6.59,56.29 -6.93,115.58 0.08,171.86 8.57,67.85 20.11,134.97 48.48,197.72 23.19,51.49 55.13,101.8 90.51,145.49 41.04,50.65 94.04,94.34 150.74,126.01 37.11,20.62 77.93,37.91 118.85,49.67 46.93,13.53 95.89,23.94 144.66,27.01 70.91,4.49 142.53,2.11 213.55,0.17 51.5,-0.07 103.08,0.44 154.52,-3.33 53.7,-3.94 106.6,-12.16 159.81,-20.43 64.54,-10.03 129.24,-18.6 193.63,-29.07 -12.37,89.65 -22.38,179.74 -33.86,269.3 -8.16,63.41 -14.34,127.43 -18.88,191.17 -4.34,60.17 -4.52,120.49 -8.04,180.61 -0.39,7.02 -0.51,13.92 -0.31,20.94 -3.18,26.29 3.6,49.68 20.62,70.21 20.2,24.13 44.95,41.96 74.34,53.5 65.16,27.32 174.43,32.68 221.76,-32.28 25.57,-35.14 25.05,-78.15 26.21,-119.36 0.8,-30.84 1.74,-61.67 3.3,-92.39 3,-62.38 10.3,-124.75 17.2,-186.82 13.81,-124.03 30.83,-248.06 48.35,-371.77 2.51,-17.54 5.32,-35.06 7.89,-52.58 20.34,-4.08 40.67,-8.11 60.89,-12.63 49.61,-10.97 98.68,-23.27 146.92,-39.17 46.83,-15.36 92.65,-32.22 140.19,-44.75 13.97,-3.31 27.96,-6.67 41.87,-10.04 81.9,-18.58 164.42,-35.53 247.54,-46.86 23.94,-3.22 47.92,-6.33 71.92,-9.46 -4.08,40.52 -7.85,81.11 -11.37,121.61 -7.33,84.02 -13.32,168.27 -18.59,252.4 -2.74,44.33 -5.62,88.56 -9.45,132.89 -2.06,24.42 -3.51,48.98 -4.75,73.43 -0.51,9.66 -0.94,19.35 -1.24,29.05 -0.64,22.38 -2.87,48.03 6.2,68.77 9.69,26.98 26.48,48.53 50.31,64.75 41.35,30.61 97.72,44.75 148.67,42.37 31.84,-0.84 61.56,-9.18 88.95,-25.09 9.7,-8.74 19.4,-17.39 29.1,-26.06 13.06,-17.94 17.93,-37.36 14.81,-58.1 2.24,-59.68 8.65,-119.28 12.91,-178.82 4.65,-63.82 9.49,-127.82 12.79,-191.77 5.93,-114.58 17.8,-229.12 32.26,-342.93 27.57,-1.82 55.19,-3.52 82.77,-5.1 81.34,-4.63 162.69,-8.74 244.11,-10.96 46.63,0.84 92.54,4.14 138.55,12.26 78.53,16.36 157.2,33.77 231.88,63.31 48.51,24.33 94.02,52.77 137.32,85.42 21.85,19.51 41.15,40.7 58.38,64.25 21.37,38.87 36.24,82.21 45.7,125.59 4.65,53.99 -1.32,107 -16.62,159.12 -14.38,37.1 -30.57,73.74 -52.04,107.34 -17.76,27.85 -37.75,55.55 -59.46,80.89 -3.08,3.18 -6.18,6.41 -9.26,9.6 -11.79,11.79 -23.33,22.52 -36.38,31.84 -3.67,1.53 -7.39,3.05 -11.1,4.6 -26.7,9.07 -48.03,25.05 -64.22,47.96 -20.95,34.91 -11.56,71.94 14.11,101.1 54.57,61.86 155.26,69.18 228.68,45.36 44.15,-14.33 81.45,-41.22 115.28,-71.65 34.82,-31.04 67.63,-63.91 97.53,-99.81 27.02,-32.47 52.37,-66.07 71.62,-103.7 28.77,-55.87 50.85,-116.71 61.76,-178.67 4.65,-26.41 3.82,-54.25 3.62,-80.94 -0.32,-42.25 -9.26,-85.33 -21.35,-125.78z"/>
  <path class="fil1" d="M7441.35 6448.26c-0.28,0.3 -0.52,0.55 -0.8,0.81 -1.41,1.56 -2.85,3.08 -4.28,4.61 1.69,-1.82 3.39,-3.6 5.08,-5.42z"/>
  <path class="fil1" d="M10455.83 7238.69c0.95,0.74 1.93,1.48 2.85,2.33 -0.94,-0.79 -1.92,-1.56 -2.9,-2.33 0.03,0 0.03,0 0.05,0zm-782.44 -1216.66c-43.9,72.45 -91.12,142.89 -135.36,215.14 -20.11,32.91 -38.34,66.74 -58.56,99.5 -20.41,32.99 -43.21,64.83 -64.95,96.9 -21.98,32.27 -44.55,64.03 -66.7,96.18 -2.25,3.29 -4.56,6.57 -6.81,9.84 -4.36,-55.26 -6.37,-110.93 -7.32,-166.02 -1.56,-81.35 0.91,-162.89 5.15,-244.14 3.92,-74.65 13.28,-149.38 26.16,-223.01 11.44,-65.14 21.21,-131.44 40.57,-194.9 22.2,-57.55 51.71,-113.15 91.7,-160.33 12.86,-11.99 26.14,-22.86 40.7,-32.64 2.99,-1.18 5.99,-2.27 9.03,-3.31 1.01,-0.17 2.01,-0.31 3.01,-0.49 28.79,15.77 56.13,35.39 82.22,55.32 5.03,4.71 9.57,9.61 13.77,14.95 13.44,24.94 22.99,51.63 33.05,78.1 14.75,38.97 28.48,78.38 42.71,117.52 8.76,24.1 -9.8,177.73 -48.37,241.39zm-1462.66 285.3c-21.01,34.11 -38.21,70.73 -56.8,106.2 -18.46,35.37 -37.64,70.61 -58.88,104.43 -39.18,62.48 -78.75,124.95 -120.6,185.67 -17.32,25.02 -35.37,49.99 -53.75,74.26 -11.05,-133.45 -9.15,-268.61 -0.81,-401.58 5.49,-87.02 17.12,-174.97 32.48,-260.75 7.86,-44.03 16.6,-87.72 26.19,-131.56 7.14,-32.09 16.45,-63.16 26.7,-94.17 14.03,-37.65 29.16,-74.44 47.63,-110.17 15.39,-29.86 35.92,-55.91 57.98,-80.88 14.62,-13.72 29.87,-25.66 46.51,-36.36 9.94,-4.08 19.94,-7.58 30.1,-10.79 9.68,-1.69 19.37,-3.04 29.19,-4.02 0.23,0.04 0.46,0.06 0.71,0.06 23.42,22.37 44.36,46.46 63.03,72.86 28.15,48.64 44.18,99.55 54.33,154.97 3.33,25.37 5.84,50.83 8,76.31 -6.24,43.15 -12.58,86.29 -18.38,129.53 -2.51,18.4 -4.63,36.85 -6.87,55.28 -31.62,58.97 -71.71,113.75 -106.76,170.71zm-2093.6 -1459.74c-3.2,45.56 -4.64,91.12 -15.28,135.77 -9.91,42.07 -20.89,84.15 -33.95,125.35 -4.52,12.51 -9.06,25.04 -13.69,37.54 -14.21,-13.47 -28.61,-26.7 -42.66,-40.31 -32.3,-31.23 -64.23,-62.39 -90.59,-98.65 -26.76,-46.38 -46.12,-94.58 -56.91,-147.13 -4.69,-46.17 -4.52,-92.24 -2.01,-138.78 2.53,-48.18 14.49,-94.21 29.03,-139.85 19.95,-51.83 44.29,-103.72 78.7,-147.45 5.79,-5.03 11.79,-9.71 18.1,-14.08 3.92,-1.51 7.86,-2.94 11.84,-4.29 3.19,-0.49 6.38,-0.98 9.58,-1.38 0.17,0.05 0.34,0.11 0.48,0.17 8.19,4.71 16.14,9.67 23.88,15.07 8.46,8 16.02,16.45 23.1,25.74 29.76,52.18 50.02,109.65 61.24,168.57 8.71,74.69 4.25,148.75 -0.86,223.71zm-167.64 528.06c-25.77,43.73 -55.48,84.84 -85.49,125.67 -28.68,39.24 -58.82,77.12 -91.68,112.87 -27.73,28.45 -57.08,55.11 -90.74,76.14 -16.33,7.22 -33.02,13.43 -50.07,18.66 -10.01,1.64 -20.03,2.91 -30.05,3.8 -16.98,-1.04 -33.74,-3.02 -50.58,-5.5 -4.3,-1.26 -8.59,-2.56 -12.86,-4 -5.92,-3.36 -11.72,-6.92 -17.43,-10.69 -7.47,-7.66 -14.29,-15.74 -20.74,-24.25 -12.88,-25.26 -21.34,-51.17 -27.17,-78.78 -3.03,-32.56 -3.08,-65.06 -1.39,-97.94 1.17,-22.38 3.31,-44.44 6.41,-66.59 2.05,-15.07 6.28,-29.88 10.89,-44.55 22.15,-55.6 48.66,-109.13 87.58,-154.64 26.82,-27.05 54.14,-53.55 81.64,-79.84 10.82,12.89 22.19,25.4 34.13,37.44 37.74,38.06 79.18,73.1 125.66,99.71 46.43,26.54 96.03,50.53 147.97,64.16 -5.19,9.52 -10.57,18.96 -16.08,28.33zm5468.43 -13.31c-8.33,-0.84 -16.55,-1.27 -24.73,-1.27 -26.8,0 -53.03,4.52 -78.69,13.55 -13.08,7.02 -26.29,14.01 -39.37,21.02 -22.41,15.69 -35.49,36.94 -39.38,63.72 -31.35,144.25 -60.43,288.79 -76.11,435.71 -6.9,65.26 -8.33,130.72 -14.23,195.98 -0.21,2.29 -0.42,4.52 -0.61,6.82 -6.53,9.32 -13.11,18.62 -19.36,28.13 -32.89,49.99 -66.83,99.9 -104.87,146.1 -17.82,21.74 -35.86,43.4 -53.49,65.26 -20.39,25.34 -39.75,51.39 -61.45,75.5 -28.53,28.21 -58.48,55.77 -91.75,78.38 -1.32,-6.47 -2.45,-13 -3.54,-19.47 -5.29,-50.25 -4.4,-100.53 -3.59,-150.93 0.72,-53.09 -1.04,-105.95 2.67,-159.08 8.14,-116.17 18.6,-232.58 24.01,-348.99 2.91,-61.15 5.27,-122.44 10.24,-183.51 4.74,-57.92 11.43,-115.77 16.3,-173.82 4.83,-58.47 5.13,-117.52 6.58,-176.11 1.44,-58.01 2.39,-116.18 0.4,-174.22 -2.67,-76.91 -9.7,-153.4 -15.37,-230.1 -5.97,-81.79 -10.09,-163.65 -13.28,-245.59 1.13,-26.41 -7.62,-49.18 -26.19,-68.26 -31.85,-36.18 -84.47,-53.61 -130.83,-57.93 -8.18,-0.86 -16.3,-1.29 -24.37,-1.29 -26.06,0 -51.54,4.4 -76.48,13.23 -31.4,12.17 -78.44,42.08 -76.91,82.69 4.87,134.01 12.92,267.89 21.66,401.69 7.73,118.33 0.73,237.44 -3.06,355.88 -1.86,59.2 -8.58,117.84 -14.57,176.73 -6.08,59.91 -9.58,119.68 -12.77,179.8 -2.62,48.44 -5.98,96.81 -9.43,145.17 -11.14,23.44 -22.09,46.88 -32.97,70.41 -17.52,38.14 -36.59,75.44 -53.9,113.7 -16.09,35.23 -31.63,70.73 -47.53,106.08 -30.32,67.42 -60.83,135.27 -95.16,200.62 -29.71,56.69 -64.06,114.37 -106.6,162.34 -0.94,1.01 -1.91,2.01 -2.84,3.02 -5.14,-21.6 -9.44,-43.48 -13.06,-65.4 -19.62,-153.03 -14.79,-307.97 -8.15,-461.71 3.3,-75.48 9.49,-150.84 14.03,-226.23 5.6,-93.67 10.34,-187.51 16.19,-281.24 5.15,-82.26 -94.22,-123.08 -160.72,-129.39 -8.28,-0.83 -16.5,-1.25 -24.65,-1.25 -26.83,0 -53.04,4.53 -78.67,13.62 -35.78,13.81 -76.19,41.97 -78.87,84.66 -1.81,29.14 -3.41,58.28 -5.01,87.38 -7.87,-10.9 -16.67,-21.06 -27.03,-29.59 -17.12,-14.05 -34.72,-27.45 -52.32,-40.96 -15.98,-13.24 -31.86,-26.7 -48.4,-39.24 -31.44,-23.93 -66.19,-39.69 -102.6,-55.05 -24.19,-10.25 -51.52,-13.09 -77.1,-17.76 -10.63,-1.92 -21.4,-2.75 -32.19,-2.75 -36.58,0 -73.51,9.64 -107.82,19.27 -13.29,3.7 -25.68,10.29 -37.74,16.68 -23.39,12.29 -43.51,23.62 -64.22,39.18 -27.13,20.42 -50.19,47.55 -71.86,73.4 -18.66,22.09 -33.93,45.6 -48.47,70.41 -30.4,51.98 -50.41,108.27 -68.25,165.6 -32.27,104.11 -50.31,213.11 -63.82,321.13 -7.31,58.89 -8.47,118.77 -11.41,178.05 -2.72,53.22 -1.94,106.69 -0.18,160.01 -34.4,63.34 -64.58,128.51 -94.49,194.1 -37.85,82.97 -76.91,165.47 -107.63,251.33 -28.78,80.43 -60.12,159.49 -93.63,238.08 -17.4,40.61 -38.14,80.22 -63.1,116.86 -2.42,-10.26 -4.43,-20.74 -6.24,-31.27 -5.9,-50.56 -7.26,-101.01 -8.3,-152.01 -1.03,-54.22 -3.41,-108.35 -5.89,-162.57 -5.35,-117.44 4.15,-233.74 13.04,-350.66 17.83,-235.13 50.79,-468.38 85.24,-701.56 16.61,-111.86 22.03,-224.79 32.09,-337.36 11.01,-122.76 15.31,-245.78 20.89,-368.98 2.89,-63.39 5.59,-126.9 6.94,-190.53 1.4,-68.25 -0.66,-136.71 0.18,-205.05 1.75,-143.85 2.89,-287.63 2.66,-431.57 0,-21.05 -0.4,-42.19 -0.69,-63.31 1.25,-27 -7.75,-50.42 -26.7,-69.92 -32.71,-36.99 -86.5,-54.94 -134.06,-59.37 -8.31,-0.83 -16.58,-1.3 -24.81,-1.3 -26.73,0 -52.86,4.5 -78.47,13.59 -32.98,12.77 -79.5,42.76 -78.87,84.62 2.36,153.62 -1.78,307.13 -1.66,460.76 0.11,130.81 1.14,261.97 -5.55,392.7 -6.41,124.87 -10.74,249.61 -19.99,374.36 -4.35,57.1 -10.34,114.01 -14.15,171.26 -0.85,12.96 -2.1,25.91 -3.15,38.86 -6.34,-9.42 -12.71,-18.85 -19.64,-27.85 -16.6,-21.57 -36.59,-41.25 -59.25,-56.38 -38.68,-25.91 -79.99,-37.77 -125.17,-45.91 -22.5,-4.05 -45.34,-6 -68.21,-6 -82.12,0 -164.47,25.46 -232.23,71.59 -23.1,15.65 -43.72,34.95 -63.29,54.73 -26.83,27.25 -53.52,54.97 -72.59,88.25 -28.13,48.76 -49.06,100.84 -68.65,153.54 -11.38,30.57 -21.1,61.4 -29.84,92.53 -30.63,37.71 -61.32,75.41 -91.17,113.79 -58.64,75.38 -113.64,153.6 -178.21,224.21 -28.76,29.86 -57.48,60.95 -89.72,87.35 -2.26,-69.58 5.84,-140.13 11.1,-209.1 6.9,-90.24 22.65,-180.03 38.86,-268.97 7.73,-42.4 14.02,-85.29 23.93,-127.22 11.45,-48.38 24.45,-96.01 40.21,-143.13 35.34,-105.36 70.81,-210.83 105.67,-316.4 1.14,-27.01 -7.73,-50.43 -26.8,-69.91 -32.59,-37.03 -86.49,-54.94 -133.92,-59.37 -8.3,-0.84 -16.53,-1.27 -24.72,-1.27 -26.81,0 -53.04,4.51 -78.7,13.55 -13.06,6.99 -26.29,14.01 -39.4,20.99 -22.34,15.59 -35.44,36.82 -39.37,63.74 -23.82,72.06 -47.96,144.02 -72.09,215.99 -20.46,60.83 -41.41,121.55 -58.84,183.42 -14.91,52.58 -24.68,106.48 -34.11,160.33 -3.51,6.32 -6.91,12.62 -10.44,18.92 -23.92,42.48 -45.46,86.29 -68.76,129.18 -25.25,46.68 -49.19,94.14 -74.94,140.53 -26.1,47.13 -52.72,93.92 -79.31,140.75 -23.89,42.16 -50.2,82.78 -74.93,124.43 -44.09,73.86 -92.74,146.17 -149.89,210.77 -5.25,5.09 -10.62,9.92 -16.13,14.5 -8.12,-23.21 -13.26,-47.15 -17.45,-71.59 -12.51,-111 3.83,-223.89 15,-334.4 5.95,-59.2 12.58,-118.8 22.46,-177.45 9.09,-54.01 21.14,-107.03 33.84,-160.35 25.13,-104.81 46.79,-210.52 73.29,-315.16 26,-102.26 51.66,-204.34 80.32,-305.88 18.04,-64.14 38.47,-127.65 55.38,-192.07 17.07,-65.18 31,-131.05 41.33,-197.55 5.75,-37.53 9.07,-75.36 13.6,-112.98 4.96,-42.19 10.93,-84.36 16.6,-126.5 12.56,-93.51 27.54,-186.74 43.29,-279.8 1.15,-27.14 -7.71,-50.43 -26.79,-69.93 -32.58,-37.11 -86.5,-54.95 -133.93,-59.37 -7.51,-0.72 -15.39,-1.1 -23.47,-1.1 -66.39,0 -146.38,25.49 -158.7,98 -24.05,141.98 -45.47,284.48 -62.47,427.46 -6.49,54.85 -12.79,109.27 -23.49,163.51 -11.06,55.87 -24.15,111.34 -39.62,166.08 -21.22,74.82 -43.94,149.14 -64.85,224.01 -3.2,0.69 -6.3,1.23 -9.44,1.61 -19.55,-1.15 -38.98,-3.39 -58.31,-6.38 -23.58,-3.56 -47.17,-5.85 -70.61,-9.55 -14.17,-3.6 -28.36,-7.68 -42.28,-12.31 6.24,-19.22 12.33,-38.46 18.63,-57.53 -1.84,5.59 -3.79,11.13 -5.74,16.71 21.86,-62.59 40.33,-125.46 57,-189.72 14.96,-57.73 16.2,-116.78 20.51,-176.08 7.85,-105.37 7.02,-213.08 -24.63,-314.85 -18.98,-61.15 -43,-123.51 -88.03,-170.54 -59.4,-61.96 -141.47,-96.42 -226.51,-101.85 -6.85,-0.47 -13.54,-0.66 -20.14,-0.66 -38.08,0 -72.63,7.05 -110.59,17.14 -24.66,6.5 -47.04,21.14 -68.77,34.02 -29.29,17.32 -52.18,44.24 -74.66,69.18 -37.72,41.86 -68.52,91.56 -90.63,143.33 -25.04,58.56 -45.03,119.97 -50.69,183.6 -2.61,28.96 -3.76,57.72 -4.04,86.8 -0.53,39.4 6.1,78.68 12.17,117.44 0.23,1.52 0.48,2.99 0.71,4.51 -0.71,0 -1.44,0 -2.15,0.04 -32.16,3.39 -61.55,14.21 -88.05,32.56 -49.8,47.31 -99.89,94.43 -147.75,143.72 -23.41,24.14 -46.81,47.64 -65.66,75.37 -12.59,18.46 -23.1,37.73 -33.11,57.73 -30.81,61.67 -57,128.05 -66.38,196.62 -9.31,67.65 -6.59,137.03 5.15,204.14 4.84,27.52 11.56,53.81 22.36,79.79 9.7,23.21 25.9,44.75 39.39,65.55 8.44,12.99 17.75,25.17 28.04,36.85 16.52,18.52 39.29,33.67 58.24,48.55 9.49,7.3 19.39,13.89 29.83,19.7 55.98,31.23 118.96,49.87 183.2,49.99 79.47,0.2 158.86,-7.01 233.21,-37.45 33.91,-13.89 66.38,-32.16 96.69,-52.78 28.78,-19.57 52.68,-45.56 75.17,-71.97 32.79,-38.45 60.8,-80.19 87.65,-122.76 29.03,-46.11 58.43,-91.78 86.28,-138.58 21.97,-36.96 41.37,-75.33 59.99,-114.05 44.95,2.5 89.4,3.37 134.34,2.11 22.81,0.65 46.34,2.7 69.74,3.39 -23.73,93.79 -47.33,187.57 -68.28,282.05 -23.09,104.49 -51.33,208.14 -69.09,313.81 -9.86,58.79 -15.76,118.24 -22.46,177.55 -6.91,60.29 -12.06,120.61 -16.29,181.12 -1.96,27.32 -2.87,54.65 -3.3,82.07 -0.63,38.25 5.16,76.82 11.04,114.45 4.73,30.31 11.85,60.51 25.78,88.03 14.52,28.97 32.68,55.78 56.29,77.96 18.36,17.23 36.39,30.81 58.64,41.05 17.33,9.87 35.47,17.28 54.54,22.23 17.44,3.62 34.74,7.14 52.17,10.62 84.66,16.82 177.13,-9.78 237.44,-71.54 18.48,-18.96 34.24,-37.54 48.47,-59.68 12.68,-20.11 22.89,-41.74 35.24,-61.96 42.8,-69.5 80.34,-142.09 122.91,-211.67 23.93,-39.07 46.07,-79.07 68.86,-118.87 5.6,-9.8 11.19,-19.63 16.79,-29.47 -3.13,41.78 -5.75,83.74 -2.44,125.35 1.96,24.45 5.86,48.71 9.97,72.9 5.47,32.18 24.86,61.98 45.48,86.28 11.65,13.72 35.06,30.24 53.3,39.01 40.01,19.15 59.81,26.89 104.44,32.96 46.8,6.53 93.31,-0.49 137.96,-14.81 32.98,-10.62 59.91,-32.4 84.13,-55.92 19.42,-18.89 38.74,-37.8 57.35,-57.53 40.81,-43.72 80.14,-88.79 116.77,-136.08 10.11,-13.03 19.7,-26.38 29.11,-39.83 -11.02,101.74 -14.95,204.34 -14.69,306.64 0.11,61.36 3.6,122.91 8.06,184.06 2.76,36.99 7.11,74.43 15.24,110.72 3.3,14.95 8.34,28.96 14.84,42.99 23.09,50.11 70.09,85.14 121.35,102.57 41.21,14.01 74.24,14.24 116.8,12.68 17.84,-0.6 35.68,-7.61 52.68,-11.84 26.19,-6.5 51.96,-17.84 71.95,-36.4 29.31,-27.35 54.38,-59.39 76.23,-92.69 48.04,-73.21 99.58,-143.94 145.23,-218.58 26.4,-43.09 54.68,-85.26 79.72,-129.29 1.66,-2.82 3.03,-5.81 4.66,-8.72 -6.35,80.97 -10.55,162.23 -7.96,243.09 3.99,123.51 16.06,248.46 46.49,368.45 5.86,23.33 12.49,45.99 20.62,68.69 10.93,30.32 31.04,58.65 52.57,82.35 47.42,52.29 120.84,86.94 190.96,88.88 17.84,0.43 37.51,0.23 55.66,-1.56 29.77,-2.84 53.3,-14 78.75,-28.01 20.95,-11.36 35.8,-26.29 51.76,-44.44 10.84,-12.36 18.15,-27.84 26.19,-41.97 10.42,-18.14 20.51,-36.89 29.89,-55.57 18.27,-36.9 34.57,-74.03 48.79,-112.81 18.32,-49.98 38.02,-99.58 57.32,-149.24 33.75,-87.22 68.36,-174.09 107.14,-259.23 9.58,15.91 19.44,30.9 32.28,44.3 29.88,31.35 62.95,48.15 102.36,64.35 18.14,7.42 39.27,10.41 58.97,10.9 30.48,0.86 57.97,0.63 86.81,-10.61 25.97,-9.99 42.99,-24.03 60.08,-45.25 8.57,-10.62 16.71,-21.23 24.77,-32.27 19.17,-26.3 39.37,-52.99 57,-80.31 50.95,-78.58 100.72,-158.05 150.43,-237.44 26.58,-42.57 50,-87.01 76.17,-129.93 29.38,-47.95 61.64,-94.08 91.13,-141.89 -0.38,20.17 -0.55,40.3 -0.21,60.5 2.04,126.01 9.7,254.58 42.41,376.73 9.46,35.38 29.08,66.5 51.91,94.87 27.97,34.62 69.92,53.18 109.61,69.49 37.95,15.45 95.06,17.92 134.85,10.01 37.05,-7.45 59.88,-17.04 92.46,-35.9 15.81,-9.17 28.41,-27 40.25,-40.21 11.97,-13.4 21.87,-29.48 31.52,-44.55 36.19,-56.06 60.95,-117.82 90.32,-177.53 32.75,-66.3 61.85,-134.45 93.8,-201.19 0.04,46.39 -0.92,92.72 -0.06,139.04 0.6,33.94 5.34,67.84 11.13,101.15 2.48,14.01 6.28,27.42 12.58,40.18 2.91,5.87 6.3,11.25 9.69,16.72 8.35,14.64 17.63,28.56 27.84,41.76 11.77,13.5 25.18,25.17 40.53,34.83 17.31,13.72 38.14,22.99 58.84,30.33 19.59,6.89 47.03,13.31 65.28,14.74 40.2,3.29 77.1,-0.11 115.68,-11.04 30.2,-8.54 58.66,-25.15 85.76,-40.41 38.47,-21.55 70.02,-56.38 100.43,-87.53 18.97,-19.39 37.62,-39.2 56.08,-59.08 17.98,-19.56 33.57,-41.27 49.44,-62.59 -3.07,19.62 -6.3,39.24 -8.94,58.88 -8.54,63.63 -15.87,127.22 -25.89,190.64 -9.86,62.79 -22.38,125.07 -32.87,187.74 -9.27,55.37 -17.43,110.83 -29.57,165.67 -20.73,94.15 -45.59,187.66 -67.86,281.45 -11.96,50.43 -26.52,100.13 -41.63,149.72 -12.03,39.4 -23.25,79.04 -35.86,118.31 -14.22,38.53 -29.78,76.51 -45.61,114.47 -18.87,45.68 -43.9,88.57 -68.14,131.48 -19.39,34.11 -42.08,66.5 -66.42,97.31 -20.29,25.62 -39.95,51.42 -61.27,76.16 -14.17,13.06 -29.12,25.22 -44.3,37.25 -17.7,14.15 -35.08,28.85 -53.91,41.5 -23.46,10.67 -47.62,19.97 -72.18,27.7 -5.51,0.84 -10.98,1.59 -16.55,2.13 -9.74,-0.78 -19.39,-1.89 -29.06,-3.28 -8.88,-2.38 -17.65,-5.09 -26.29,-8.1 -10.53,-6.02 -20.55,-12.58 -30.31,-19.62 -25.92,-23.39 -47.19,-50.22 -67.05,-79.11 -6.97,-11.33 -13.57,-22.89 -18.78,-35.14 -9.98,-23.5 -17.84,-47.32 -25.18,-71.77 -13.18,-44.73 -21.91,-90.49 -29.57,-136.48 0.26,1.75 0.51,3.48 0.74,5.27 -7,-46.91 -14.4,-94.58 -13.11,-141.98 1.2,-41.9 5.89,-82.95 17.98,-122.91 20.72,-53.73 48.97,-102.74 87.33,-145.63 25.31,-25.1 51.66,-46.71 82.3,-64.89 17.99,-8.68 36.34,-16.19 55.41,-22.03 5.84,-0.86 11.66,-1.58 17.5,-2.13 -0.32,14.07 -2.19,28.2 -3.6,42.08 -2.47,23.73 -3.71,47.46 -6.07,71.16 -3.33,33.52 -10.44,65.84 -20.11,97.94 -5.69,14.56 -12.08,28.92 -19.18,42.81 -4.02,7.91 -8.23,15.76 -11.34,24.12 -5.34,14.5 -13,28.33 -13.4,43.9 -0.84,31.24 9.5,50.1 28.97,73.92 21.04,21.34 45.88,36.3 74.64,44.95 16.6,3.39 33.2,6.79 49.82,10.1 32.88,3.4 64.83,-0.4 95.87,-11.34 31.63,-15.43 63.8,-30.51 80.7,-63.82 4.65,-9.06 7.65,-19.69 11.47,-29.18 14.13,-35.02 27.11,-73.22 31.66,-111 5.03,-40.54 1.64,-79.51 -5.58,-119.84 -8.47,-47.4 -30.41,-84.53 -56.81,-124.52 -15.97,-24.12 -40.53,-44.23 -63.62,-60.94 -37.32,-27.02 -78.85,-39.9 -123.7,-47.73 -25.68,-4.56 -53,-1.86 -78.88,-0.3 -26.7,1.54 -53.07,8.65 -78.68,15.55 -39.78,10.62 -76.92,32.16 -111.85,53.3 -24.67,14.99 -45.83,35.49 -65.82,56.35 -34.54,36.33 -64.26,73.37 -88.74,117.27 -28.02,50.22 -47.08,106.42 -55.98,163.2 -9.37,60.31 -7.21,121.04 -1.94,181.58 6.18,70.93 14.55,141.43 27.32,211.54 10.41,57.52 34.12,114.56 64.62,164.23 33.64,54.67 70.96,101.15 127.02,134.78 30.12,18.03 64.36,31.92 98.17,41.54 41.85,11.85 85.88,22.66 129.59,22.35 40.54,-0.3 79.18,-1.04 119.11,-6.79 42.86,-6.3 85.34,-17.64 126.78,-30.23 64.12,-19.45 121.05,-65.43 170.63,-109.45 44.64,-39.8 80.14,-89.62 117.04,-136.21 67.29,-85.06 115.42,-184.04 155.98,-284.16 26.19,-64.8 47.95,-131.22 67.83,-198.24 17.71,-59.51 36.18,-118.88 51.14,-179.08 16.18,-65.26 31.75,-130.74 46.91,-196.19 11.57,-49.9 25.05,-99.06 34.83,-149.4 11.24,-58.15 18.97,-117.04 29.6,-175.25 10.71,-58.37 21.26,-116.96 29.72,-175.72 8.44,-58.82 15.12,-118.01 23.38,-176.9 8.21,-58.24 19.06,-116.2 29.89,-173.92 11.34,-60.52 20.22,-120.73 24.23,-182.19 4.12,-62.65 6.8,-125.23 13.9,-187.72 16.42,-144.76 44.45,-287.22 75.35,-429.52 1.17,-27.12 -7.69,-50.42 -26.76,-70.01 -32.59,-36.99 -86.5,-54.85 -133.92,-59.39z"/>
  <path class="fil1" d="M10148.84 7260.32c4.4,-4.69 8.89,-9.42 13.38,-14.1 0.08,-0.09 0.17,-0.17 0.25,-0.23 -4.53,4.72 -9.06,9.58 -13.63,14.33z"/>
  <path class="fil1" d="M12339.09 6090.46c-1.07,51.22 -6.93,103.08 -20.95,152.47 -16.14,38.66 -36.87,74.9 -58.76,110.62 -16.39,26.74 -34.26,52.31 -54.57,76.11 -14.95,14.01 -30.62,26.97 -47.28,39.17 -20.21,14.96 -40.49,30.3 -61.72,43.92 -11.62,4.78 -23.37,9.03 -35.28,12.89 -12.91,2.16 -25.82,3.88 -38.85,5.1 -3.13,-0.24 -6.24,-0.47 -9.32,-0.79 -1.35,-0.43 -2.69,-0.83 -4.06,-1.29 -2.18,-1.29 -4.36,-2.65 -6.54,-4 -10.36,-9.8 -20.11,-20.16 -29.43,-31.18 -32.28,-57.09 -54.82,-120.88 -66.68,-185.24 -3.88,-43.97 -1.78,-86.16 5.27,-129.86 7.23,-44.36 21.68,-88.81 35.9,-131.59 23.2,-64.49 51.7,-129.95 90.51,-186.33 37.62,-54.73 82.12,-105.35 127.44,-154 22.85,-22.95 46.69,-44.79 71.19,-65.81 23.64,42.11 42.38,85.74 58.4,131.63 17.52,50.04 28.7,100.99 37.59,152.99 6.2,54.99 8.28,109.64 7.14,165.19zm1070.37 -1205.45c-24.84,-28.28 -76,-35.61 -109.71,-21.89 -40.5,16.59 -427.95,209.74 -907.8,491.68 -16.02,-18.92 -32.23,-37.67 -48.21,-56.55 -45.59,-53.76 -93.77,-106.02 -133.98,-163.92 -14.75,-25.17 -28.19,-50.4 -38.07,-78.15 -9.25,-25.77 -15.36,-52.43 -20.09,-79.33 -4.59,-52.17 3.51,-103.55 13.9,-154.71 6.32,-31.81 14.27,-62.8 23.87,-93.6 19.38,-47.55 44.64,-92.65 76.86,-132.54 25.37,-24.08 52.45,-46.19 79.36,-68.64 43.28,-36.06 88.76,-69.46 134.75,-101.96 22.34,-15.65 35.46,-36.9 39.38,-63.71 4.03,-42.97 -28.01,-77.11 -61.53,-97.94 -35.02,-21.8 -78.83,-33.36 -122.29,-33.36 -43.09,0 -85.9,11.32 -119.72,35.21 -58.93,41.76 -115.44,86 -170.91,132.18 -51.14,42.5 -97.55,89.58 -133.2,145.87 -37.45,59.19 -61.75,128.57 -78.56,196.22 -7.53,30.18 -13.32,60.92 -18.98,91.64 -2.47,13.52 -3.71,27.42 -5.14,41.13 -4.04,40.53 -0.33,76.95 5.55,117.12 8.67,58.88 22.47,116.41 52.45,168.28 35.62,61.43 74.99,117.51 122.11,170.41 38.14,42.89 74.12,87.93 111.01,131.86 17.87,21.19 35.16,42.71 52.05,64.51 -14.13,11.07 -28.11,22.33 -42.03,33.66 -49.2,40.09 -93.98,84.01 -137.44,130.12 -41.61,43.35 -83.31,87.04 -117.92,136.25 -33.93,48.15 -61.8,101.17 -86.95,154.27 -27.29,57.8 -50.3,118.03 -68.46,179.27 -15.35,51.86 -21.31,106.83 -21.75,160.74 -0.48,70 5.9,141.56 24.55,209.18 10.91,39.58 36.51,76.51 60.43,108.96 13,17.67 32.99,31.36 49.57,44.44 8.79,6.94 17.45,13.09 27.25,18.47 24.1,13.2 49.78,23.82 75.36,33.82 30.41,11.74 64.85,15.57 97.21,19.79 40.74,5.38 82.99,2.16 123.69,-1.75 42.28,-4.11 84.18,-16 124.45,-29.08 46.81,-15.25 89.41,-42.6 129.22,-71.05 22.57,-16.16 45.05,-32.47 66.15,-50.39 41.68,-35.27 77.83,-78.23 108.15,-123.63 26.61,-39.89 52.58,-83.1 70.85,-127.53 26.48,-64.24 40.92,-128.78 45.67,-197.95 4.14,-59.07 2.17,-118.34 -3.5,-177.21 -12.48,-128.89 -44.33,-253.85 -104.57,-368.72 -17.92,-34.4 -41.13,-66.78 -63.28,-98.51 -11.22,-16.06 -22.75,-31.82 -34.33,-47.52 393.82,-272.01 886.08,-491.89 910.43,-504.11 12.82,-4.34 23.13,-11.96 30.86,-23 10,-16.72 5.56,-34.44 -6.71,-48.33z"/>
  <path class="fil1" d="M8702.97 3279.74c4.94,-28.97 10.39,-57.85 17.83,-86.38 7.16,-27.82 19.09,-55.03 30.59,-81.69 23.02,-49.3 51.08,-96.79 87.2,-137.52 11.3,10.59 22.83,20.94 34.49,31.12 25.04,21.98 51.34,41.88 79.86,58.87 52.41,31.16 108.51,58.65 168.31,72.29 12.39,2.8 24.96,4.83 37.68,6.27 -7.05,18.04 -14.42,35.93 -22.01,53.67 -26.44,58.79 -55.06,117.33 -91.78,170.49 -32.57,47.14 -65.23,96.35 -106.87,136.19 -18.1,15.85 -36.29,31.61 -55.39,46.28 -22.43,17.34 -45.98,31.38 -71.18,43.45 -9.45,3.55 -18.93,6.58 -28.63,9.08 -1.17,-0.5 -2.38,-1.02 -3.56,-1.53 -14.42,-9.55 -28.24,-20.22 -41.36,-31.5 -8.14,-8.75 -15.53,-17.95 -22.28,-27.76 -14.73,-37.65 -21.62,-76.82 -26.18,-116.92 -0.35,-48.43 5.14,-96.64 13.28,-144.41zm343.82 -742.82c6.52,-50.42 15.06,-100.07 32.17,-147.85 16.45,-31.84 36.93,-60.89 61.53,-87.18 3.59,-2.67 7.28,-5.2 11.05,-7.59 4.91,2.06 9.72,4.29 14.49,6.62 6.04,3.88 11.81,8.05 17.43,12.62 12.51,13.61 22.96,28.44 32.16,44.45 29.72,60.37 49.39,124.71 55.74,191.69 1.59,56.39 -1.41,112.39 -8.08,168.38 -6.57,56.9 -18.65,113.4 -29.15,169.68 -5.77,30.61 -12.83,61.01 -20.88,91.13 -13.11,-9.3 -25.59,-19.5 -37.67,-30.06 -15.56,-16.11 -30.05,-32.99 -44.77,-50.03 -18.25,-21.16 -36,-42.51 -50.98,-65.92 -21.48,-47.69 -34.79,-97.67 -40.65,-149.68 -1.26,-48.96 1.41,-97.57 7.61,-146.26zm914.75 1526.89c-14.55,58.68 -32.39,116.61 -48.71,174.74 -23.27,82.89 -54.61,163.64 -88.44,242.71 -25.45,56.29 -54.93,112.89 -93.38,161.05 -17.05,21.43 -35.6,41.53 -53.52,62.15 -14.32,16.51 -28.76,32.7 -44.22,48.07 -6.4,5.04 -12.93,9.78 -19.8,14.12 -13.72,4.11 -27.64,7.1 -41.77,9.69 -28.56,3.48 -56.81,5.64 -85.68,5.35 -11.85,-1.64 -23.5,-3.71 -35.15,-6.38 -9.18,-3.31 -18.13,-7.01 -26.92,-11.05 -16.79,-11.1 -32.03,-23.58 -47.09,-36.9 -17.95,-18.55 -33.82,-38.89 -47.54,-60.73 -20.22,-45.06 -25.77,-95.86 -30.52,-144.76 -1.74,-43.6 0.4,-87 9.38,-130.01 7.93,-38.13 21.14,-74.84 36.09,-110.7 4.95,-10.1 10.59,-19.7 16.27,-29.28 7.04,-3.72 13.47,-8.43 18.6,-14.87 24.57,-31.08 48.97,-62.17 75.82,-91.16 13.08,-9.58 26.46,-18.64 39.23,-28.74 8.8,-5.11 14.87,-12.25 18.5,-21.13 33.27,-22.1 69.78,-39.64 105.85,-56.69 69.25,-27.97 142.57,-47.55 216.09,-60.52 51.23,-6.83 102.69,-11.36 153.9,-18.67l0.05 0c-9.44,34.49 -18.49,69.09 -27.04,103.71zm-1550.46 -1007.29c-15.36,36.79 -28.68,73.61 -37.4,112.58 -12.38,55.26 -21.65,113.53 -23.11,170.23 -1.01,37.5 1.55,75.47 6.3,112.69 3.9,30.21 9.29,60 19.29,88.88 11.22,32.04 27.29,62.88 46.8,90.61 5.54,8.13 13.09,14.95 20.11,21.85 18.23,17.72 34.43,33.63 54.72,47.96 70.5,50.19 159.38,75.35 245.59,70.41 60.2,-3.42 124.15,-14.35 176.17,-46.72 35.31,-21.94 67.78,-51.13 97.94,-79.5 23.86,-22.46 46.2,-46.48 68.26,-70.61 28.17,-31.03 52.91,-66.31 75.08,-101.85 21.64,-34.87 43.52,-68.69 62.38,-105.07 37.85,-73.15 69.27,-148.46 96.13,-225.8 32.49,-1.64 65.14,-3.8 97.15,-8.66 43.42,-6.64 86.44,-16.62 128.96,-28.46 -13.34,52.37 -21.46,106.99 -26.22,160.46 -2.68,30.84 -5.37,62.07 -4.35,93 1.22,33.79 1.54,71.64 16.42,103.08 20.8,44.04 39.48,68.97 77.39,100.12 50.35,41.34 122.72,58.54 186.03,58.86 69.48,0.31 124.85,-47.64 168.85,-95.67 25.37,-27.64 47.64,-56.49 69.18,-87.21 41.97,-59.71 82.73,-120.38 122.83,-181.41 -21.32,107.86 -53.04,213.51 -73.92,321.43 -11.25,57.93 -21.48,116.29 -35.5,173.7 -6.59,27.12 -13.82,54.1 -21.33,81 -0.9,0.17 -1.86,0.31 -2.78,0.42 -64.95,9.49 -129.89,17.88 -195.27,25.81 -76.79,9.25 -152.68,25.97 -225.76,51.54 -69.93,24.55 -134.36,58.77 -197.47,97.22 -18.9,11.56 -36.25,26.12 -52.68,41.77 -14.71,10.35 -28.94,21.23 -42.69,33.31 -0.44,0.37 -0.8,0.74 -1.24,1.12 0.03,-0.03 0.06,-0.06 0.09,-0.12 -0.46,0.41 -0.86,0.81 -1.32,1.21 -3.06,2.65 -6.07,5.38 -9.07,8.11 2.65,-2.45 5.38,-4.86 8.1,-7.21 -32,28.75 -61.45,57.38 -85.52,93.68 -27.53,41.55 -46.48,88.04 -63.84,134.55 -19.77,53.3 -27.81,110.74 -30.51,167.32 -2.55,56.31 0.73,114.35 8.97,170.13 7.23,48.24 33.51,92.57 60.76,132.17 25.05,36.3 55.74,69.09 91.23,95.26 56.28,41.45 126.26,66.82 194.22,80.22 66.09,12.98 135.46,14.64 202.69,12.17 37.97,-1.35 78.06,-5.49 114.34,-15.99 36.19,-10.5 69.48,-28.16 99.8,-50.11 39.07,-28.16 75.38,-61.23 108.47,-96.19 26.28,-27.75 49.57,-56.2 69.56,-88.78 23.82,-38.75 45,-79.28 63.32,-120.93 48.27,-109.07 91.44,-219.38 123.1,-334.53 15.68,-57.14 32.29,-113.94 47.12,-171.35 13.4,-52.07 28.16,-103.73 42.61,-155.5 1.78,-6.38 3.56,-12.8 5.32,-19.22 -0.3,-1.37 -0.21,-2.84 -0.39,-4.25 6.76,-23.01 12.52,-46.46 18.61,-69.46 6.57,-25.06 12.42,-50.28 17.89,-75.59 0.9,-1.33 1.57,-2.91 2.56,-4.17 4.56,-20.28 8.87,-40.65 12.89,-61.13 16.91,-84.85 35.67,-168.78 56.18,-252.8 45.47,-186.93 73.08,-377.75 102.59,-567.75 12.58,-81.35 -84.84,-130.34 -149.9,-141.78 -14.54,-2.68 -29.09,-4 -43.41,-4 -20.32,0 -40.5,2.67 -60.52,7.94 -34.86,10.36 -73.34,32.94 -83.41,70.76 -27.62,39.14 -50.57,81.48 -73.42,123.45 -33.41,61.44 -68.66,121.43 -106.07,180.52 -35.78,56.6 -76.11,110.94 -116.32,164.55 -25.48,33.86 -51.09,68.25 -79.32,100.13 1.77,-59.23 11.23,-117.96 21,-176.32 4.94,-29.89 13.08,-58.76 20.79,-88.05 8.26,-30.84 14.56,-61.95 19.94,-93.3 11.73,-68.58 23.89,-136.4 39.17,-204.23 18.04,-80.65 36.17,-161.36 54.82,-241.98 3.32,-26.92 -3.71,-50.83 -21.12,-71.88 -29.51,-39.46 -81.77,-61.63 -128.76,-69.98 -13.44,-2.36 -28.28,-3.71 -43.64,-3.71 -61.49,0 -130.82,21.49 -145.65,85.76 -30.61,132.49 -63.85,265.18 -86.54,399.31 -2.5,15.09 -5.08,30.11 -7.72,45.12 -6.71,0.55 -13.29,1.38 -19.5,2.83 -23.71,5.46 -46.6,12.97 -70.61,17.31 -28.94,5.23 -57.37,12.6 -86.22,18.23 -13.14,1.5 -26.23,2.42 -39.39,2.76 10.26,-39.92 18.76,-80.19 26.61,-120.69 11.56,-60 22.91,-120.63 28.06,-181.55 4.96,-60.64 5.76,-120.83 0.33,-181.47 -5.31,-58.44 -23.02,-118.88 -45.37,-172.98 -10.23,-24.54 -22.82,-47.95 -36.42,-70.74 -14.64,-24.52 -34.12,-44.15 -55.05,-63.38 -48.32,-44.44 -110.32,-74.28 -176.2,-79.91 -17.72,-1.58 -35.21,-3.19 -52.87,-3.19 -3.39,0 -6.79,0.06 -10.2,0.2 -43.1,1.44 -77.24,16.8 -115.69,34.23 -38.06,17.09 -71.77,50.42 -101.88,78.04 -15.36,14.12 -28.94,30.31 -39.99,48.14 -10.81,17.75 -18.47,35.47 -26.91,54.94 -6.31,14.56 -12.87,29 -17.01,44.33 -14.13,52.09 -24.64,104.67 -30.3,158.26 -5.51,52.37 -5.62,107.22 1.33,159.95 -5.28,2.61 -10.35,5.51 -15.16,8.83 -57.52,39.49 -117.53,76.27 -164.63,128.45 -29.2,32.3 -51.43,68.97 -71.98,107.03 -17.74,32.79 -32.07,66.9 -46.5,101.24z"/>
  <path class="fil1" d="M9307.38 4083.21c0.24,-0.24 0.52,-0.49 0.8,-0.72 0.83,-0.75 1.67,-1.52 2.49,-2.27 -1.14,1.03 -2.18,1.95 -3.29,2.99z"/>
  <path class="fil1" d="M8254.2 2105.39c34.98,6.49 69.72,5.14 104.07,-3.92 35.86,-10.62 80.18,-35.87 85.34,-78.04 4.23,-35.47 12.48,-70.2 17.12,-105.58 8.98,-66.8 16.38,-132.69 18.57,-200.2 3.41,-26.93 -3.7,-50.82 -21.04,-71.88 -29.59,-39.48 -81.87,-61.65 -128.74,-69.89 -14.61,-2.71 -29.09,-4.06 -43.53,-4.06 -20.27,0 -40.44,2.68 -60.55,7.97 -32.64,9.7 -84.01,36.62 -85.34,78.06 -2.08,65.67 -8.35,130.21 -17.86,195.16 -5.43,36.9 -13.38,73.52 -17.84,110.63 -9.98,81.86 82.51,129.89 149.8,141.75z"/>
  <path class="fil1" d="M8257.76 2282.62c-14.44,-2.55 -28.75,-3.91 -43.08,-3.91 -20.43,0 -40.64,2.67 -60.83,7.94 -37.42,11.05 -78.34,35.58 -85.38,78.03 -24.01,146 -50.1,291.69 -76.06,437.26 -22.39,125.27 -48.47,249.61 -77.84,373.43 -13.21,55.98 -24.57,112.16 -36.09,168.45 -5.84,28.5 -12.82,56.72 -20.03,84.87 -16.04,25.35 -33.66,49.53 -55.32,70.51 -9.48,8.25 -19.15,16.24 -30.28,22.25 -11.88,6.27 -23.75,12.58 -35.81,18.44 -11.52,4 -23.15,6.76 -35.33,8.89 1.36,-0.17 2.68,-0.4 4,-0.6 -2.75,0.45 -5.52,0.89 -8.27,1.32 -2.62,0.29 -5.24,0.49 -7.88,0.66 -9.46,-23.58 -14.82,-47.63 -17.78,-73.31 -1.51,-44.02 0.43,-88.34 1.5,-132.32 1.32,-55.77 4.01,-111.85 13.59,-166.88 19.47,-112.41 44.33,-223.34 73.5,-333.54 31.66,-119.71 79.3,-238.04 50.02,-363.63 -7.54,-31.98 -23.53,-62.91 -38.35,-91.95 -8.88,-17.23 -16.3,-31.99 -29.51,-45.68 -12.44,-13 -24.3,-23.73 -39.18,-33.22 -40.41,-25.77 -84.53,-36.59 -131.84,-38.74 -2.74,-0.15 -5.44,-0.21 -8.13,-0.21 -60.42,0 -110,32.71 -156.11,68.35 -29.8,23.09 -54.46,53.09 -78.47,81.86 -25.77,30.92 -48.75,63.91 -71.54,97.12 -30.23,44.02 -54.84,90.01 -79.17,137.42 -25.26,49.06 -52.06,97.24 -77.75,146 -6.65,12.65 -13.44,25.31 -20.17,37.94 6.53,-45.31 13.93,-90.46 22.87,-135.54 18.55,-93.19 42.77,-184.35 71.76,-274.86 3.29,-26.89 -3.71,-50.82 -21.04,-71.85 -29.6,-39.5 -81.87,-61.64 -128.87,-69.9 -14.53,-2.7 -29,-4.05 -43.44,-4.05 -20.28,0 -40.44,2.67 -60.49,7.97 -13.7,5.87 -27.32,11.85 -41.04,17.74 -23.5,13.81 -38.26,33.92 -44.32,60.32 -21.55,67.3 -40.45,135.02 -56.38,203.58l-63.05 412.04c-7.39,66.12 -14.79,132.23 -21.4,198.44 -9.49,96.07 -15.06,193.49 -7.85,289.9 9.89,27.34 26.93,49.19 51.13,65.67 41.97,31.15 99.18,45.48 150.94,43 32.38,-0.81 62.49,-9.27 90.34,-25.46 9.85,-8.85 19.67,-17.62 29.49,-26.49 14.89,-20.36 19.37,-42.57 13.57,-66.53 -0.4,-23.61 0.09,-47.31 0.95,-71.04 9.81,-38.35 19.87,-76.63 30.83,-114.69 16.37,-57.14 31.4,-115.39 53.53,-170.64 27.7,-59.83 58.88,-117.84 88.81,-176.58 32.92,-64.63 67.23,-128.57 102.1,-192.16 17.82,-32.39 33.79,-65.67 52.18,-97.75 17.81,-31.24 38.64,-60.63 59.27,-90 27.21,-38.93 57.1,-75.1 91.35,-107.77 10.3,-8.22 21.29,-15.34 32.68,-21.78 -7.25,103.61 -48.36,202.53 -81.58,299.86 -36.89,108.35 -66.58,218.15 -90.08,330.24 -12.29,58.65 -21.66,117.4 -25.26,177.32 -2.9,47.11 -3.54,94.43 -4.14,141.55 -0.8,59.08 -1.95,121.02 15.35,178.07 2.48,8.13 6.51,15.84 10.43,23.5 10.72,20.62 20.21,41.84 36.09,58.96 15.68,16.8 33.91,35.26 53.72,48.15 16.18,10.5 36.68,22.26 56.29,28.96 44.62,15.17 67.31,18.27 114.23,20.22 64.25,2.57 124.02,-21.19 177.98,-54.76 -15.99,63.74 -31.8,127.51 -46.3,191.66 -15.85,70.63 -30.61,141.44 -46.49,212.09 -14.83,65.79 -33.9,130.42 -54.52,194.53 -27.73,86.4 -57.01,172.7 -91.06,256.91 -19.14,-26.77 -45.66,-48.44 -76.7,-61.23 -28.64,-11.74 -56.77,-16.29 -87.73,-16.29 -28.45,0.12 -53.69,10.53 -78.66,22.69 -22.05,10.83 -42.77,31.56 -59.6,48.56 -32.25,32.79 -52.57,78.24 -59.17,123.51 -4.11,27.73 -2.07,55.46 0.4,83.3 3,34.55 15.29,61.95 32,92.18 21.1,38.15 65.85,67.35 105.96,81.67 44.02,15.67 82.18,20.19 128.88,22.03 64.02,2.46 126.51,-15.13 182.07,-46.28 24.02,-13.52 45.83,-32.16 65.7,-52.63 10.64,-14.56 21.08,-29.32 31.2,-44.28 12.59,-18.87 23.39,-38.88 34.76,-58.45 24.62,-42.47 48.55,-85.36 71.43,-128.79 5.08,-9.47 10.12,-18.85 15.17,-28.22 0.6,-1.36 1.15,-2.59 1.65,-3.94 0.42,-0.81 0.74,-1.64 1.03,-2.48 1.73,-3.96 3.54,-7.99 5.17,-12.05 0.02,-0.06 0.02,-0.12 0.06,-0.17 0.02,-0.03 0.06,-0.09 0.06,-0.14 0.09,-0.15 0.15,-0.3 0.22,-0.43 0.46,-1.24 1.04,-2.48 1.48,-3.8 0.43,-0.93 0.94,-1.93 1.35,-2.99 0.51,-1.24 1.03,-2.47 1.54,-3.71 22.25,-53.3 43.97,-106.88 68.15,-159.5 7.55,-24.33 14.65,-48.75 21.46,-73.28 8.44,-30.52 16.6,-61.04 25.56,-91.28 8.14,-27.61 16.82,-54.93 24.84,-82.57 17.82,-61.24 36.89,-121.95 56.52,-182.56 8.85,-27.52 16.99,-55.28 26.17,-82.69 3.75,-11.26 7.53,-22.39 11.3,-33.57 4.94,-20.71 10.04,-41.34 15.42,-61.9 26.29,-100.72 51.86,-201.66 77,-302.71 12.79,-51.02 21.45,-102.88 32.78,-154.22 11.78,-53.01 24.53,-105.68 36.94,-158.58 25.66,-109.7 46.6,-220.84 65.44,-331.99 22.37,-132.36 47.32,-264.33 69.09,-396.9 13.41,-81.25 -85.38,-130.44 -149.93,-141.89z"/>
  <path class="fil1" d="M10839.08 3451.04c12.26,39.1 22.38,78.84 33.2,118.71 2.38,8.78 6.09,16.31 10.38,23.15 -2.64,12.43 -4.39,25.15 -5.7,37.97 -3.28,30.87 -6.61,61.36 -8.28,92.44 -3.05,55.18 -1.79,110.61 -5.32,165.77 -2.19,33.57 17.8,56.56 38.85,68.43 28.79,16.34 68.82,16.22 90.78,-17.84 8.45,-13.22 9.71,-32.1 10.91,-48.78 0.99,-13.69 1.17,-27.3 1.43,-40.99 0.58,-25.71 1.1,-51.31 1.92,-77.02 0.84,-27.07 2.37,-54.02 4.63,-80.97 2.4,-27.79 2.42,-57.15 7.92,-84.39 0.03,-0.07 0.05,-0.09 0.08,-0.14 6.15,-7.66 12.09,-15.46 17.47,-24.48 10.53,-17.92 19.84,-36.79 29.45,-55.63 26.78,-51.87 51.02,-105.91 75.44,-159.81 16.86,-37.25 -7.18,-70.38 -32.03,-84.45 -12.2,-6.67 -24.9,-10.02 -38.01,-10.02 -1.23,0 -2.48,0.04 -3.71,0.1 -15.27,1.03 -37.66,7.64 -46.54,27.29 -16.62,36.7 -33.48,73.09 -50.8,109.18 -11.52,-36.54 -23.49,-72.88 -35.2,-109.29 -4.15,-15.79 -11.5,-28.34 -21.77,-37.83 -16.62,-16.77 -38.9,-25.05 -59.69,-25.05 -1.61,0 -3.2,0.06 -4.77,0.15 -13.79,0.45 -26.61,5.37 -38.52,14.75 -12.67,11.19 -24.99,34.25 -17.88,56.09 15.27,47.51 30.88,94.91 45.76,142.66z"/>
  <path class="fil1" d="M11276.05 3840.85c-0.03,0 -0.03,0.02 -0.05,0.02 -0.41,-0.02 -0.75,-0.08 -1.15,-0.14 0.4,0.02 0.77,0.08 1.2,0.12zm15.04 -197.84c1.26,-1.5 2.5,-2.99 3.74,-4.49 5.66,-10.53 7.46,-21.94 5.35,-34.25 -0.11,-35.44 0.67,-71.11 3.19,-106.4 1.69,-23.99 4.47,-47.86 5.9,-71.85 1.33,-22.12 3.72,-43.57 9.07,-64.28 0.68,-1.76 1.39,-3.49 2.14,-5.15 16.14,47.72 21.34,101.47 24.43,153.34 1.64,40.32 2.44,80.73 0.44,121.06 -2.26,45.1 -10.57,88.21 -22.9,130.09 -7.57,21.23 -16.93,41.77 -28.17,59.83 -0.74,-5.49 -1.29,-11.07 -1.72,-16.85 -2.05,-53.53 -1.64,-107.35 -1.47,-161.05zm-126.81 127.1c0.99,24.91 1.6,50.17 6.41,74.39 9.55,48.43 39.38,78.38 71.63,97.91 20.52,12.34 42.57,15.19 64.67,16.11 20.97,0.8 43.26,-11.43 61.24,-24.91 31.1,-23.42 53.04,-63.4 68.87,-105.57 8.16,-21.68 14.75,-44.67 20.23,-67.85 4.96,-20.8 9.74,-41.24 12.01,-63.04 4.11,-38.87 4.89,-77.61 3.78,-116.68 -1.24,-45.24 -2.21,-91.14 -8.45,-135.7 -2.38,-17.25 -5.39,-34.28 -8.86,-51.29 -5.4,-26.05 -13.76,-48.91 -23.15,-72.67 -13.75,-34.72 -41.78,-61.13 -68.79,-73.56 -22.62,-10.38 -45.34,-17.2 -68.61,-17.2 -9.78,-0.02 -19.64,1.19 -29.61,3.83 -27.96,7.42 -53.48,30.61 -66.39,65.35 -8.54,23.07 -14.2,45.91 -17.09,71.28 -2.62,22.4 -3.02,45.13 -5.56,67.5 -2.09,19.1 -3.88,38.06 -5.06,57.36 -0.69,11.91 -1.22,23.9 -1.61,35.89 -4.63,6.08 -7.79,13.33 -7.78,21.69 0.28,52.2 0.51,104.41 0.86,156.62 0.07,20.22 0.43,40.35 1.26,60.54z"/>
  <path class="fil1" d="M11756.59 3948.82c14.62,-15.65 28.2,-33.02 40.19,-52.47 20.53,-32.98 37.24,-74.12 44.27,-116.37 7.02,-42.85 6.93,-87.52 9.69,-131.19 2.81,-43.05 5.44,-86 6.78,-129.17 1.35,-42.98 2.28,-85.58 4.81,-128.51 2.65,-44.83 -32.15,-70.51 -60.28,-77.26 -5.15,-1.22 -11.04,-1.91 -17.26,-1.91 -24.83,0 -54.49,11.3 -59,46.58 -4.35,33.13 -3.47,66.5 -3.92,99.98 -0.51,35.86 -1.33,71.61 -3.26,107.37 -1.96,37.02 -4.33,74.04 -5.7,111.06 -1.22,32.19 -2.77,64.89 -10.71,95.34 -7.75,19.82 -16.74,38.28 -27.17,55.32 -4.93,-24.3 -7.89,-49.45 -9.64,-74.32 -1.61,-50.55 -0.52,-101.4 -0.35,-151.96 0.26,-63.43 0.69,-126.94 1.1,-190.36 1.27,-14.27 -1.41,-26.84 -8.2,-37.91 -11.55,-20.91 -31.89,-32.56 -50.26,-37.01 -13.65,-3.32 -27.17,-2.63 -40.61,2.15 -12.42,4.92 -33.18,19.42 -33.27,41.13 -0.7,106.25 -1.36,212.5 -1.43,318.73 0,48.81 3.54,97.56 12.33,144.88 3.19,16.91 8.02,33.25 13.74,48.78 5.71,15.08 11.26,28.44 19.7,40.78 6.34,9.26 13.27,17.92 21.11,24.79 15.81,13.71 30.59,20.22 48.88,25.81 21.23,6.54 46.04,1.15 66.68,-5.93 14.92,-5.14 29.79,-15.43 41.78,-28.33z"/>
  <path class="fil1" d="M12060.99 3505.75c2.29,-26.71 6.08,-53.24 8.36,-79.96 0.54,-6.53 0.88,-13.18 1.29,-19.87 2.15,1.93 4.31,3.88 6.44,5.95 2.41,4.26 4.65,8.71 6.76,13.34 2.64,7.14 5.05,14.38 6.97,21.81 2.64,10.53 4.08,21.68 5.07,32.76 -0.13,17.84 -2.26,34.97 -6.58,51.85 -2.61,6.6 -5.56,12.86 -9,18.64 -3.01,2.77 -6.04,5.33 -9.17,7.75 -4.95,2.29 -9.92,4.34 -14.96,6.27 1.56,-19.53 3.16,-39 4.82,-58.54zm18.1 -93.02c-0.03,-0.02 -0.03,-0.02 -0.03,-0.02 -0.62,-1.58 -1.24,-3.17 -1.86,-4.75 0.62,1.58 1.24,3.18 1.89,4.77zm0.72 1.93c0.3,0.72 0.59,1.44 0.87,2.16 -0.28,-0.72 -0.57,-1.47 -0.87,-2.19 0,0 0,0 0,0.03zm-115.1 581.07c13.59,3.43 26.93,2.74 40.28,-2.04 12.58,-5.03 32.54,-19.21 33.03,-40.89 1.63,-82.02 3.9,-164.16 8.34,-245.99 11.42,1.21 22.71,-0.12 33.07,-3.34 0.75,5.27 1.32,10.56 2.13,15.82 4.73,32.47 6.19,65.58 10.22,98.25 3.22,26.19 6.24,52.79 11.32,78.5 3.47,17.61 4.73,35.52 7.74,53.13 3.92,14.37 10.51,25.92 19.97,34.48 16.27,16.46 38.51,23.99 58.7,22.64 12.46,-0.37 24.22,-4.81 35.01,-13.38 14.3,-12.56 19.17,-28.79 16.42,-51.07 -2.12,-16.89 -2.74,-33.57 -5.66,-50.25 -4.58,-25.38 -8.15,-50.86 -11.93,-76.43 -4.87,-33.26 -7.5,-66.93 -12.24,-100.1 -4.02,-28.12 -7.8,-56.23 -11.52,-84.36 1.75,-2.13 3.48,-4.2 5.22,-6.36 12.43,-15.31 19.45,-42.29 25.6,-62.04 10.74,-34.03 8.12,-73.93 3.78,-109.33 -1.76,-14.98 -6.14,-28.1 -10.88,-41.71 -7.11,-19.98 -14.22,-40.09 -25.51,-56.43 -22.88,-33.02 -53.48,-52.77 -82.92,-73.23 -16.28,-11.31 -35.39,-17 -52.96,-22.84 -11.01,-3.68 -22.64,-5.61 -34.09,-5.61 -3.94,0 -7.85,0.24 -11.7,0.69 -9.72,1.26 -20.28,3.43 -29.71,7.66 -16.91,7.53 -24.07,14.75 -36.9,30.39 -14.88,18.16 -15.54,47.06 -16.31,72.21 -0.78,26.28 -2.36,52.55 -4.49,78.69 -3.29,41.25 -6.56,82.61 -8.6,124.08 -5.75,118.13 -10.96,236.27 -13.35,354.71 -1.27,14.06 1.43,26.64 8.19,37.6 11.4,20.68 31.6,32.21 49.75,36.55z"/>
  <path class="fil1" d="M3958.15 3376.37c-1.46,51.83 -6.61,103.95 -11.92,155.59 -1.49,12.21 -2.96,24.45 -4.31,36.64 -1.83,15.13 -3.63,30.26 -5.34,45.44 -0.47,3.77 -0.94,7.54 -1.35,11.34 -3.05,23.41 -7.05,46.42 -14.27,68.74 -5.95,13.98 -12.88,26.75 -21.03,39.41 -0.21,0.23 -0.41,0.46 -0.61,0.68 -1.76,0.53 -3.5,1.02 -5.26,1.45 -0.95,0.02 -1.9,0.02 -2.87,0.02 -1.19,-0.71 -2.36,-1.47 -3.55,-2.26 -3.71,-3.6 -7.18,-7.34 -10.49,-11.37 -1.43,-2.3 -2.82,-4.66 -4.12,-7.07 -0.86,-3.46 -1.58,-6.91 -2.22,-10.48 -2.53,-25.05 -3.99,-50.39 -5.68,-75.47 -1.33,-18.75 -6.17,-35.01 -18.94,-48.69 -11.95,-12.95 -28.43,-20.26 -45.44,-20.26 -33.19,0 -66.99,31.44 -64.37,68.95 1.71,25.66 3.54,51.4 5.84,76.94 2.41,26.81 5.85,52.47 18.4,76.4 5.72,10.96 13.39,20.77 20.53,30.69 26.65,37.16 67.59,59.47 111.34,60.66 35,0.98 70.98,-14.64 96.31,-40.1 8.78,-8.71 15.31,-20.04 22.25,-30.37 3.98,-6.24 8.32,-12.28 11.84,-18.85 11.28,-20.78 19.62,-44.28 26.35,-67.12 8.78,-29.62 11.07,-61.52 14.69,-92.01 -0.17,1.44 -0.36,2.89 -0.52,4.36 1.1,-9.34 2.11,-18.69 3.1,-28.04 1.54,-12.34 3.06,-24.71 4.52,-37.05 6.57,-53.69 11.45,-107.68 14.42,-161.87 1.42,-25.78 1.6,-51.52 2.11,-77.38 0.52,-30.14 2.32,-60.11 4.42,-90.29 1.21,-18.53 1.44,-37.16 -3.22,-55.28 -5.2,-20.25 -16.97,-33.28 -32.68,-45.24 -9.86,-7.42 -25.44,-9.03 -36.82,-9.92 -13.05,-1.07 -27.32,3.02 -40.21,4.54 -22.51,2.67 -45.15,-0.32 -67.69,-1.73 -30.77,-1.84 -61.54,-3.02 -92.28,-4.95 -1.04,-0.08 -2.07,-0.12 -3.09,-0.12 -33.62,0 -61.28,34.24 -61.28,69.07 0,18.21 6.83,35.87 18.89,48.81 12.57,13.46 28.07,19.07 45.48,20.16 24.63,1.62 49.15,2.92 73.77,3.97 19.64,0.87 39.16,3.02 58.74,3.65 3.13,0.16 6.21,0.16 9.29,0.1 -0.44,7.64 -0.8,15.29 -1.13,22.97 -1.32,28.45 -0.81,56.89 -1.6,85.34z"/>
  <path class="fil1" d="M4174.85 3618.85c3.55,29.31 8.42,58.65 16.39,86.98 6.97,24.45 15.7,49.56 27.78,71.77 10.86,19.7 25.15,37.79 45.17,47.17 9.96,4.74 19.5,8.62 30.06,11.11 18.69,4.42 34.6,3.35 53.29,0.11 24.01,-4.21 47.06,-23.04 62.57,-42.46 10.55,-13.38 19.19,-27.36 25.62,-43.43 14.9,-37.37 22.73,-75.85 27.36,-115.92 3.53,-30.29 5.02,-60.77 7.64,-91.04 2.91,-32.98 5.44,-65.95 7.54,-99.03 2.13,-32.53 6.14,-65.06 8.05,-97.71 1.89,-34.17 3.71,-68.43 6.13,-102.48 2.7,-37.48 -31.25,-68.94 -64.38,-68.94 -16.96,0 -33.47,7.33 -45.52,20.16 -12.78,13.78 -17.52,30.03 -18.81,48.78 -1.02,14.12 -1.21,28.25 -2.01,42.34 -0.92,15.42 -2.62,30.71 -3.43,46.02 -1.7,33.28 -5.04,66.59 -7.83,99.78 -5.49,63.02 -7.93,126.5 -14.69,189.49 -3.28,22.44 -8.02,44.41 -14.67,65.87 -8.78,-25.91 -14.85,-53.24 -18.88,-80.36 -2.84,-30.26 -4.4,-60.52 -4.97,-90.86 -0.6,-32.31 -3.22,-64.75 -3.22,-97.08 -0.19,-72.63 0.21,-145.34 3.72,-217.97 1.89,-37.51 -30.68,-68.94 -64.36,-68.94 -36.41,0 -62.46,31.43 -64.37,68.94 -3.62,73.37 -3.93,146.87 -3.7,220.35 0,33.28 2.7,66.59 3.3,99.87 0.51,32.71 2.73,65.09 6.22,97.48z"/>
  <path class="fil1" d="M4175.28 3622.85c-0.18,-1.32 -0.29,-2.68 -0.43,-4 -0.16,-0.97 -0.27,-1.98 -0.4,-2.99 0.3,2.32 0.57,4.66 0.83,6.99z"/>
  <path class="fil1" d="M4602.97 3872.91c17.01,4.75 32.7,1.3 48.16,-6.78 20.05,-10.44 32.23,-29.25 44.78,-47.75 15.08,-20.42 31.23,-41.36 42.74,-64.08 19.69,-39.01 28.75,-80.92 33.58,-124.46 2.54,-22.73 3.42,-45.33 1.33,-68.08 -2.43,-25.63 -5.04,-51.41 -13.49,-75.54 -7.37,-20.99 -16.32,-39.12 -26.76,-58.19 -7.19,-12.85 -12.76,-26.52 -18.24,-40.27 -3.96,-11.93 -6.87,-23.89 -8.95,-36.32 -0.71,-8.72 -1.03,-17.37 -0.62,-26.15 1.42,-7.15 3,-14.27 5.03,-21.28 13.28,-28.85 30.95,-55.4 48.96,-81.09 0.14,-0.23 0.31,-0.46 0.46,-0.66 3.55,-4.94 6.95,-9.81 10.48,-14.75 5.55,-10.56 8.32,-21.89 8.32,-34.06 0,-18.2 -6.84,-35.86 -18.8,-48.7 -12.04,-12.94 -28.57,-20.28 -45.53,-20.28 -15.11,0 -35.81,6.7 -45.48,20.28 -24.22,33.83 -47.46,67.55 -67.16,104.61 -14.18,26.61 -20.51,55.26 -24.13,85.24 -2.62,22.29 0.08,44.26 3.1,66.34 4.23,31.6 16.2,60.47 28.25,89.43 7.94,19.02 19,36.07 27.58,54.6 3.43,10.78 5.85,21.57 7.69,32.85 1.89,22.23 1.75,44.11 -0.24,66.4 -2.64,16.95 -6.58,33.43 -11.79,49.71 -8.29,18.58 -19.25,35.13 -30.77,51.54 -5.02,6.93 -9.88,13.92 -14.77,20.94 -0.11,0.11 -0.22,0.29 -0.34,0.44 -30.58,16.99 -39.29,62.67 -23.01,93.31 8.46,16.05 22.93,28.01 39.62,32.75z"/>
  <path class="fil1" d="M5043.5 3752.86c3.51,-55.6 6.43,-111.23 11.96,-166.6 9.97,-101.3 3.2,-203.38 9.93,-304.86 0.15,0 0.32,0 0.51,0.03 33.89,7.02 68.29,-12.14 77.44,-49.54 8.53,-34.89 -11.57,-76.36 -45.96,-84.12 -33.02,-7.46 -66.4,-5.82 -99.52,-1.56 -12.54,1.53 -24.68,0.66 -37.17,-0.6 -22.4,-2.16 -44.85,-2.91 -67.28,-4.08 -0.89,-0.06 -1.79,-0.1 -2.64,-0.1 -33.83,0 -61.73,33.77 -61.73,69.04 0,38.88 29.37,67.13 64.37,68.97 14.47,0.72 28.85,1.5 43.21,2.42 -6.68,101.37 0.02,203.27 -9.99,304.4 -2.59,27.39 -4.83,54.85 -7.01,82.23 -2.34,26.81 -2.62,53.88 -4.63,80.69 -1.53,21.22 -4.02,42.45 -5.33,63.79 -1.03,15.3 -2.52,31.44 -1.32,46.86 1.41,18.86 6.04,35.04 18.81,48.7 12.06,12.94 28.56,20.24 45.52,20.24 32.92,0 67.2,-31.43 64.38,-68.94 -1.1,-14.52 0.4,-29.83 1.13,-44.38 1.09,-20.91 4,-41.71 5.32,-62.59z"/>
  <path class="fil1" d="M5231.93 1628.86c203.09,227.78 524.24,355.03 816.65,411 357.88,68.48 1027.22,110.19 1175.35,-337.37 105.31,-318.12 -179.37,-596.75 -488.77,-597.44 -375.51,-0.84 -698.29,284.12 -789.02,640.7 -99.63,391.59 132,751.01 556.92,744.69 -41.55,-71.63 -83.12,-143.22 -124.69,-214.84 -332.84,17.12 -669.7,141.75 -876.96,413.91 -158.34,207.92 -233.18,479.45 -168.23,736.31 65.26,258.03 280.47,443.85 538.94,495.82 343.94,69.18 666.24,-92.21 869.51,-366.42 143.95,-194.17 251.65,-427.36 304.77,-663.83 29.83,-132.79 -272.47,-243.91 -300.02,-121.2 -83.27,370.62 -321.1,879.72 -739.6,944.1 -463.91,71.36 -441.75,-541.5 -262.24,-821.14 174.78,-272.24 483.14,-388.54 794.57,-404.52 65.77,-3.4 83.78,-62.71 59.47,-113.46 -28.66,-59.85 -120.97,-102.3 -184.15,-101.35 -201.27,2.99 -208.56,-233.33 -171.12,-394.87 55.37,-238.84 227.95,-468.63 470.93,-537.84 43.11,-12.28 108.27,-28.82 152.15,-17.57 -14.91,-3.82 24.15,14.35 6.71,2.59 8,5.38 21.79,21.11 29.58,33.19 45.61,70.89 44.29,165.07 14.17,241.41 -123.54,313.22 -593.9,283.43 -858.03,236.87 -157.5,-27.79 -310.85,-78.01 -446.88,-163.29 -42.37,-26.53 -60.97,-40.53 -96.2,-70.38 -18.58,-15.77 -58.57,-59.64 -20.23,-16.63 -49.99,-56.07 -134.29,-102.21 -212.15,-85.72 -61.98,13.15 -100.97,71.74 -51.43,127.28z"/>
  <path class="fil2" d="M6462.67 9824.45l-169.18 0c3.36,8.47 7.83,16.17 13.39,23.15 5.56,6.92 12.03,12.87 19.4,17.92 7.37,4.98 15.45,8.92 24.25,11.7 8.79,2.85 17.98,4.27 27.55,4.27 16.81,0 32.01,-4.07 45.59,-12.22 13.58,-8.15 24.51,-18.95 32.79,-32.4l58.2 35.31c-6.98,11.64 -15.32,22.24 -25.03,31.75 -9.7,9.51 -20.37,17.59 -32.01,24.38 -11.64,6.79 -24.18,12.03 -37.64,15.78 -13.45,3.82 -27.42,5.69 -41.9,5.69 -21.99,0 -42.68,-4.2 -62.08,-12.61 -19.41,-8.41 -36.28,-19.79 -50.64,-34.14 -14.36,-14.36 -25.74,-31.24 -34.15,-50.64 -8.4,-19.4 -12.61,-40.1 -12.61,-62.08 0,-21.99 4.21,-42.62 12.61,-61.89 8.41,-19.27 19.79,-36.15 34.15,-50.64 14.36,-14.49 31.23,-25.93 50.64,-34.34 19.4,-8.41 40.09,-12.61 62.08,-12.61 21.99,0 42.68,4.2 62.08,12.61 19.4,8.41 36.28,19.85 50.64,34.34 14.36,14.49 25.74,31.37 34.14,50.64 8.41,19.27 12.62,39.9 12.62,61.89 0,12.41 -1.3,23.79 -3.89,34.14l-30.26 0 -40.74 0zm0 -68.29c-3.37,-8.47 -7.89,-16.17 -13.58,-23.15 -5.69,-6.92 -12.16,-12.87 -19.4,-17.92 -7.25,-4.97 -15.27,-8.92 -24.06,-11.7 -8.8,-2.85 -17.98,-4.27 -27.55,-4.27 -9.57,0 -18.76,1.42 -27.55,4.27 -8.8,2.78 -16.88,6.73 -24.25,11.7 -7.37,5.05 -13.84,11 -19.4,17.92 -5.56,6.98 -10.03,14.68 -13.39,23.15l169.18 0zm367.45 -119.51l-107.48 154.04 107.48 153.66 0 0 -96.61 0 -58.98 -92.35 -58.98 92.35 -96.62 0 0 0 107.48 -153.66 -107.48 -154.04 0 0 96.23 0 59.37 92.35 58.98 -92.35 96.61 0 0 0zm191.69 -5.82c21.73,0 42.1,4.14 61.11,12.42 19.02,8.27 35.64,19.53 49.86,33.75 14.23,14.23 25.48,30.85 33.76,49.86 8.28,19.02 12.42,39.39 12.42,61.12 0,21.73 -4.14,42.16 -12.42,61.31 -8.28,19.14 -19.53,35.76 -33.76,49.86 -14.22,14.09 -30.84,25.28 -49.86,33.56 -19.01,8.28 -39.38,12.42 -61.11,12.42 -15,0 -29.36,-1.94 -43.07,-5.82 -13.71,-3.88 -26.51,-9.58 -38.41,-17.08l30.26 -60.14c7.25,5.17 15.2,9.12 23.87,11.83 8.66,2.72 17.78,4.08 27.35,4.08 12.42,0 24.06,-2.33 34.92,-6.99 10.87,-4.65 20.37,-11.05 28.52,-19.2 8.15,-8.15 14.62,-17.72 19.4,-28.72 4.79,-10.99 7.18,-22.7 7.18,-35.11 0,-12.42 -2.39,-24.06 -7.18,-34.92 -4.78,-10.87 -11.25,-20.37 -19.4,-28.52 -8.15,-8.15 -17.65,-14.62 -28.52,-19.4 -10.86,-4.79 -22.5,-7.18 -34.92,-7.18 -12.42,0 -24.12,2.39 -35.11,7.18 -11,4.78 -20.57,11.25 -28.72,19.4 -8.15,8.15 -14.55,17.65 -19.21,28.52 -4.65,10.86 -6.98,22.5 -6.98,34.92l0 128.82 0 22.51 0 79.15 -67.13 0 0 -381.81 67.13 0 0 22.89c12.93,-9.05 26.97,-16.1 42.1,-21.14 15.13,-5.05 31.11,-7.57 47.92,-7.57zm427.6 193.62l-169.18 0c3.36,8.47 7.83,16.17 13.39,23.15 5.56,6.92 12.03,12.87 19.4,17.92 7.37,4.98 15.45,8.92 24.25,11.7 8.79,2.85 17.98,4.27 27.55,4.27 16.81,0 32.01,-4.07 45.59,-12.22 13.58,-8.15 24.51,-18.95 32.79,-32.4l58.2 35.31c-6.98,11.64 -15.32,22.24 -25.03,31.75 -9.7,9.51 -20.37,17.59 -32.01,24.38 -11.64,6.79 -24.18,12.03 -37.64,15.78 -13.45,3.82 -27.42,5.69 -41.9,5.69 -21.99,0 -42.68,-4.2 -62.08,-12.61 -19.41,-8.41 -36.28,-19.79 -50.64,-34.14 -14.36,-14.36 -25.74,-31.24 -34.15,-50.64 -8.4,-19.4 -12.61,-40.1 -12.61,-62.08 0,-21.99 4.21,-42.62 12.61,-61.89 8.41,-19.27 19.79,-36.15 34.15,-50.64 14.36,-14.49 31.23,-25.93 50.64,-34.34 19.4,-8.41 40.09,-12.61 62.08,-12.61 21.99,0 42.68,4.2 62.08,12.61 19.4,8.41 36.28,19.85 50.64,34.34 14.36,14.49 25.74,31.37 34.14,50.64 8.41,19.27 12.62,39.9 12.62,61.89 0,12.41 -1.3,23.79 -3.89,34.14l-30.26 0 -40.74 0zm0 -68.29c-3.37,-8.47 -7.89,-16.17 -13.58,-23.15 -5.69,-6.92 -12.16,-12.87 -19.4,-17.92 -7.25,-4.97 -15.27,-8.92 -24.06,-11.7 -8.8,-2.85 -17.98,-4.27 -27.55,-4.27 -9.57,0 -18.76,1.42 -27.55,4.27 -8.8,2.78 -16.88,6.73 -24.25,11.7 -7.37,5.05 -13.84,11 -19.4,17.92 -5.56,6.98 -10.03,14.68 -13.39,23.15l169.18 0zm369.39 146.8c-14.74,14.55 -31.69,26 -50.83,34.34 -19.14,8.34 -39.83,12.48 -62.08,12.48 -21.99,0 -42.62,-4.2 -61.89,-12.61 -19.27,-8.41 -36.15,-19.79 -50.64,-34.14 -14.48,-14.36 -25.93,-31.24 -34.34,-50.64 -8.4,-19.4 -12.61,-40.1 -12.61,-62.08 0,-21.99 4.21,-42.62 12.61,-61.89 8.41,-19.27 19.86,-36.15 34.34,-50.64 14.49,-14.49 31.37,-25.93 50.64,-34.34 19.27,-8.41 39.9,-12.61 61.89,-12.61 22.25,0 42.94,4.2 62.08,12.61 19.14,8.41 36.09,19.85 50.83,34.34l-48.11 48.11c-8.28,-8.27 -17.98,-14.8 -29.1,-19.59 -11.13,-4.79 -23.03,-7.18 -35.7,-7.18 -12.68,0 -24.51,2.39 -35.51,7.18 -10.99,4.79 -20.62,11.25 -28.9,19.53 -8.28,8.28 -14.81,17.98 -19.6,29.04 -4.78,11.12 -7.18,22.83 -7.18,35.24 0,12.68 2.4,24.51 7.18,35.64 4.79,11.05 11.32,20.75 19.6,29.03 8.28,8.28 17.91,14.75 28.9,19.53 11,4.79 22.83,7.18 35.51,7.18 12.67,0 24.57,-2.39 35.7,-7.18 11.12,-4.78 20.82,-11.31 29.1,-19.59l48.11 48.24zm319.35 -266.31l0 307.31 -68.3 0 0 -22.89 0 -130.76c0,-12.42 -2.39,-24.19 -7.17,-35.31 -4.79,-11.13 -11.32,-20.83 -19.6,-29.11 -8.28,-8.27 -17.91,-14.8 -28.91,-19.59 -10.99,-4.79 -22.83,-7.18 -35.5,-7.18 -12.68,0 -24.51,2.39 -35.51,7.18 -10.99,4.79 -20.62,11.25 -28.9,19.53 -8.28,8.28 -14.81,17.98 -19.6,29.04 -4.78,11.12 -7.18,22.83 -7.18,35.24 0,12.68 2.4,24.51 7.18,35.64 4.79,11.05 11.32,20.75 19.6,29.03 8.28,8.28 17.91,14.75 28.9,19.53 11,4.79 22.83,7.18 35.51,7.18 9.83,0 19.08,-1.42 27.74,-4.27 8.67,-2.84 16.75,-6.85 24.25,-12.03l30.66 61.18c-12.16,7.57 -25.16,13.32 -39,17.33 -13.84,4.08 -28.39,6.08 -43.65,6.08 -21.99,0 -42.68,-4.2 -62.08,-12.61 -19.41,-8.41 -36.28,-19.79 -50.64,-34.14 -14.36,-14.36 -25.74,-31.24 -34.15,-50.64 -8.4,-19.4 -12.61,-40.1 -12.61,-62.08 0,-21.99 4.21,-42.62 12.61,-61.89 8.41,-19.27 19.79,-36.15 34.15,-50.64 14.36,-14.49 31.23,-25.93 50.64,-34.34 19.4,-8.41 40.09,-12.61 62.08,-12.61 17.07,0 33.3,2.59 48.7,7.76 15.39,5.17 29.55,12.29 42.48,21.34l0 -23.28 68.3 0zm224.28 239.8l0 68.29 -61.7 0c-17.33,0 -33.63,-3.3 -48.96,-9.9 -15.26,-6.59 -28.71,-15.65 -40.28,-27.16 -11.58,-11.51 -20.7,-24.9 -27.3,-40.16 -6.66,-15.26 -9.95,-31.69 -9.95,-49.28l0 -215.74 68.29 0 0 60.92 78.76 0 0 68.3 -78.76 0 0 86.52c0,8.02 1.55,15.59 4.65,22.7 3.11,7.12 7.31,13.26 12.61,18.43 5.31,5.18 11.45,9.32 18.43,12.42 6.99,3.1 14.49,4.66 22.51,4.66l61.7 0zm102.83 -320.12l0 62.86 -68.29 0 0 -62.86 68.29 0zm-68.29 388.02l68.29 0 0 -307.7 -68.29 0 0 307.7zm271.22 5.43c-21.99,0 -42.68,-4.2 -62.08,-12.61 -19.41,-8.41 -36.28,-19.79 -50.64,-34.14 -14.36,-14.36 -25.74,-31.24 -34.15,-50.64 -8.4,-19.4 -12.61,-40.1 -12.61,-62.08 0,-21.99 4.21,-42.62 12.61,-61.89 8.41,-19.27 19.79,-36.15 34.15,-50.64 14.36,-14.49 31.23,-25.93 50.64,-34.34 19.4,-8.41 40.09,-12.61 62.08,-12.61 21.99,0 42.68,4.2 62.08,12.61 19.4,8.41 36.28,19.85 50.64,34.34 14.36,14.49 25.74,31.37 34.14,50.64 8.41,19.27 12.62,39.9 12.62,61.89 0,21.98 -4.21,42.68 -12.62,62.08 -8.4,19.4 -19.78,36.28 -34.14,50.64 -14.36,14.35 -31.24,25.73 -50.64,34.14 -19.4,8.41 -40.09,12.61 -62.08,12.61zm0 -250.66c-12.68,0 -24.51,2.39 -35.5,7.18 -11,4.79 -20.63,11.25 -28.91,19.53 -8.28,8.28 -14.81,17.98 -19.6,29.04 -4.78,11.12 -7.18,22.83 -7.18,35.24 0,12.68 2.4,24.51 7.18,35.64 4.79,11.05 11.32,20.75 19.6,29.03 8.28,8.28 17.91,14.75 28.91,19.53 10.99,4.79 22.82,7.18 35.5,7.18 12.67,0 24.51,-2.39 35.5,-7.18 11,-4.78 20.63,-11.25 28.91,-19.53 8.28,-8.28 14.81,-17.98 19.6,-29.03 4.78,-11.13 7.17,-22.96 7.17,-35.64 0,-12.41 -2.39,-24.12 -7.17,-35.24 -4.79,-11.06 -11.32,-20.76 -19.6,-29.04 -8.28,-8.28 -17.91,-14.74 -28.91,-19.53 -10.99,-4.79 -22.83,-7.18 -35.5,-7.18zm366.68 -68.29c20.18,0 39.19,3.88 57.04,11.64 17.85,7.76 33.43,18.3 46.76,31.62 13.32,13.33 23.86,28.98 31.62,46.95 7.76,17.98 11.64,37.06 11.64,57.24l0 166.07 -68.29 0 0 -113.3 0 -48.89c0,-12.42 -2.39,-24.12 -7.18,-35.12 -4.79,-10.99 -11.19,-20.56 -19.34,-28.71 -8.15,-8.15 -17.72,-14.62 -28.65,-19.4 -10.99,-4.79 -22.63,-7.18 -35.05,-7.18 -12.41,0 -24.12,2.39 -35.24,7.18 -11.06,4.78 -20.7,11.25 -28.84,19.4 -8.15,8.15 -14.56,17.72 -19.34,28.71 -4.79,11 -7.18,22.7 -7.18,35.12l0 48.89 0 113.3 -68.29 0 0 -307.31 68.29 0 -0.39 35.31c13.45,-12.94 28.91,-23.09 46.37,-30.46 17.46,-7.37 36.15,-11.06 56.07,-11.06z"/>
  <path class="fil2" d="M7740.48 9427.71c-68.37,-21.38 -128.85,-47.78 -184.79,-80.69 -114.64,-67.36 -222.56,-106.36 -329.45,-119.61l0 -61.25c97.54,21.35 195.07,58.84 297.49,114.74 85.12,46.5 166.89,66.64 228.61,78.97 70.92,14.33 139.5,21.52 206.65,21.52 72.35,0 143,-8.79 212.83,-25.51l0 71.83 -431.34 0zm-514.24 -71.62c81.99,3.51 165.33,27.06 252.83,71.62l-252.83 0 0 -71.62zm10.75 -635.85c76.01,37.76 145.17,66.79 210.84,88.21 43.13,14.16 86.34,21.23 130.31,21.23 40.18,0 81,-5.91 122.96,-17.7 90.59,-25.19 176.36,-58.59 252.1,-88.07 46.23,-17.98 89.77,-34.82 130.82,-48.62l87.8 51.22 0 28.57c-46.58,11.43 -98.33,28.8 -153.11,47.43 -91.84,31.19 -195.96,66.54 -312.95,86.91 -86.03,14.97 -159.55,9.45 -231.27,-17.28 -76.85,-28.45 -156.18,-62.27 -248.25,-105.64l0 -39.99 10.75 -6.27zm546.42 -220.29l-8.13 4.39c-35.88,19.43 -72.28,39.16 -109.46,58.13 -64.43,33.07 -133.89,43.03 -210.98,30.7l244.2 -142.44 84.37 49.22zm-350.64 214c37.8,10.6 75.41,15.87 112.64,15.87 49.4,0 98.15,-9.32 145.79,-27.88 65.42,-25.7 128.02,-54.38 188.59,-82.14 20.84,-9.53 41.18,-18.81 61.32,-27.87l105.75 61.68c-33.83,12.09 -68.7,25.3 -105.6,39.66 -75,29.19 -159.99,62.28 -249,87.04 -81.46,22.87 -158.03,21.91 -234.19,-3.12 -58.44,-19.04 -120.03,-44.6 -186.81,-76.94l47.52 -27.72c37.92,16.79 76.19,30.9 113.99,41.42zm383.92 -194.59l89.62 52.28c-13.38,6.07 -26.56,12.01 -40.21,18.26 -60.18,27.56 -122.35,56.05 -186.88,81.39 -76.67,29.94 -156.58,33.64 -237.62,10.99 -28.84,-8.03 -57.99,-18.72 -87.06,-30.61l57.73 -33.67c35.52,8.5 70.1,13.15 103.46,13.15 58.75,0 113.99,-13.17 165.1,-39.41 37.34,-19.08 73.96,-38.9 110.08,-58.46l25.78 -13.92zm-323.57 572.6c89.39,41.41 174.41,48.02 238.46,49.18 7.77,0.16 15.47,0.22 23.14,0.22 174.8,0 313.75,-40.04 417.1,-70.32l0 108.27c-104.51,29.62 -245.72,59.06 -426.24,38.56 -61,-6.78 -141.39,-19.81 -222.4,-60.8 -101.7,-51.17 -198.98,-89.39 -296.94,-117.29l0 -57.08c85.89,30.7 175.45,67.21 266.88,109.26zm-145.3 -98.38l114.83 48.53c57.12,25.85 129.47,62.72 200.9,62.12 16.64,2.18 65.16,6.46 83.45,4.25 18.44,2.5 37.07,-0.54 55.33,-0.92 26.78,-0.56 53.65,-0.33 79.21,-6.14 0.86,-0.19 1.71,-0.2 2.58,-0.3 1.72,-0.2 3.47,-0.41 5.2,-0.6 4.87,-0.57 9.76,-1.22 14.59,-1.85 15.16,-1.97 30.07,-4.33 44.48,-6.74 60.01,-10.01 114.27,-22.36 166.19,-38.56 23.09,-6.43 36.75,-10.15 57.24,-16.6l0 0 -4.63 1.36c-106.26,31.16 -251.55,74.2 -434.99,70.12 -60.85,-1.09 -141.44,-7.32 -225.3,-46.16 -96.23,-44.25 -190.54,-82.57 -280.66,-114.39l0 0c48.48,20.24 67.96,24.56 121.58,45.88zm824 -98.6c-23.41,6.63 -48.06,14.12 -74.61,22.28 -101.79,31.42 -228.5,70.51 -378.07,81.49 -88.45,6.62 -161.11,-3.53 -228.27,-31.66l-99.99 -41.76c-57.63,-24.08 -112.31,-46.92 -164.64,-68.52l0 -54.06c86.91,40.58 163.09,72.92 236.78,100.22 49.01,18.25 100.06,27.31 154.34,27.31 30.25,0 61.51,-2.83 94,-8.45 119.56,-20.78 224.97,-56.6 317.92,-88.21 53.19,-18.02 99.8,-33.64 142.54,-44.6l0 105.96zm-945.58 365.58c101.04,13.22 203.57,50.64 312.78,114.79 33.43,19.67 68.62,36.89 105.75,52.36l-97.16 0c-112.01,-66.21 -217.36,-100.35 -321.37,-104.53l0 -62.62zm945.58 61.63c-132.39,32.94 -267.57,34.9 -413.02,5.43 -59.45,-11.88 -138.1,-31.22 -219.33,-75.57 -107.62,-58.79 -210.24,-97.84 -313.23,-119.54l0 -58.34c92.9,27.09 185.44,63.64 282.14,112.26 85.65,43.36 169.81,57.05 233.5,64.14 43.32,4.88 84.34,7 123.25,7 123.95,0 225.62,-21.58 306.69,-44.05l0 108.67zm-472.78 -909.55l-505.69 294.98 0 752.98 1011.36 0 0 -752.98 -505.67 -294.98z"/>
  <path class="fil2" d="M7193.56 10008.68l47.96 0 -0.36 252.39 -47.96 0 0.36 -252.39zm165.26 93.74c10.76,14.43 16.1,37.26 16.1,68.51l0 90.14 -47.95 0 0 -89.9c0,-6.49 -0.18,-12.74 -0.54,-18.69 -0.36,-6.01 -1.62,-11.3 -3.79,-15.86 -2.16,-4.51 -5.65,-8.12 -10.45,-10.76 -4.81,-2.64 -11.66,-3.97 -20.55,-3.97 -6.98,0 -14.55,1.93 -22.72,5.77l-0.36 0.36 -0.36 -0.72 -17.31 -31.25 0.36 -0.36c6.25,-5.53 13.22,-9.73 20.92,-12.5 7.69,-2.82 16.1,-4.2 25.23,-4.2 29.03,0 49.46,7.81 61.42,23.43zm127.88 -24.51c12.98,0 25.12,2.46 36.41,7.39 11.3,4.92 21.16,11.6 29.57,20.01 8.41,8.41 15.08,18.27 20.01,29.56 4.93,11.3 7.39,23.32 7.39,36.06 0,12.74 -2.46,24.76 -7.39,36.06 -4.93,11.29 -11.6,21.15 -20.01,29.56 -8.41,8.41 -18.27,15.09 -29.57,20.01 -11.29,4.93 -23.43,7.39 -36.41,7.39 -12.98,0 -25.12,-2.46 -36.42,-7.39 -11.3,-4.92 -21.15,-11.6 -29.57,-20.01 -8.41,-8.41 -15.08,-18.27 -20.01,-29.56 -4.92,-11.3 -7.39,-23.32 -7.39,-36.06 0,-12.74 2.47,-24.76 7.39,-36.06 4.93,-11.29 11.6,-21.15 20.01,-29.56 8.42,-8.41 18.27,-15.09 29.57,-20.01 11.3,-4.93 23.44,-7.39 36.42,-7.39zm0 143.14c6.01,0 11.59,-1.32 16.76,-3.97 5.17,-2.64 9.74,-6.31 13.7,-11 3.97,-4.68 7.09,-10.09 9.38,-16.22 2.28,-6.13 3.42,-12.8 3.42,-20.01 0,-6.73 -1.14,-13.16 -3.42,-19.29 -2.29,-6.13 -5.41,-11.42 -9.38,-15.87 -3.96,-4.44 -8.53,-7.99 -13.7,-10.63 -5.17,-2.65 -10.75,-3.97 -16.76,-3.97 -6.01,0 -11.66,1.32 -16.95,3.97 -5.29,2.64 -9.92,6.19 -13.88,10.63 -3.97,4.45 -7.09,9.74 -9.38,15.87 -2.28,6.13 -3.42,12.56 -3.42,19.29 0,7.21 1.14,13.88 3.42,20.01 2.29,6.13 5.41,11.54 9.38,16.22 3.96,4.69 8.59,8.36 13.88,11 5.29,2.65 10.94,3.97 16.95,3.97zm111.41 -140.26l47.95 0 0 180.28 -47.95 0 0 -180.28zm195.42 -2.88c11.3,0 20.85,2.22 28.66,6.67 7.82,4.44 14.13,10.27 18.93,17.48 4.81,7.21 8.3,15.33 10.46,24.34 2.16,9.01 3.25,18.09 3.25,27.22l0 107.45 -47.96 0 0.36 -107.75c0,-3.84 -0.72,-7.45 -2.16,-10.81 -1.44,-3.37 -3.43,-6.43 -5.95,-9.08 -2.52,-2.64 -5.53,-4.75 -9.01,-6.31 -3.49,-1.56 -7.16,-2.34 -11,-2.34 -7.93,0 -14.66,2.82 -20.19,8.47 -5.53,5.71 -8.3,12.38 -8.3,20.07l0 107.75 -47.95 0 0 -107.75c0,-3.84 -0.72,-7.45 -2.16,-10.81 -1.45,-3.37 -3.49,-6.43 -6.13,-9.08 -2.65,-2.64 -5.71,-4.69 -9.2,-6.13 -3.48,-1.44 -7.39,-2.16 -11.72,-2.16 -0.24,0 -1.32,-1.8 -3.24,-5.35 -1.92,-3.61 -4.09,-7.51 -6.49,-11.84 -2.65,-4.99 -5.89,-10.69 -9.74,-17.18l0.36 -0.73c10.34,-8.11 21.76,-12.13 34.26,-12.13 13.46,0 24.4,3 32.81,8.95 8.41,5.95 14.9,13.34 19.47,22.17 0.96,-1.68 1.92,-3.12 2.88,-4.26 6.73,-8.84 14.37,-15.51 22.9,-20.07 8.53,-4.51 17.49,-6.79 26.86,-6.79zm173.07 0c12.74,0 24.76,2.46 36.05,7.39 11.3,4.92 21.16,11.6 29.57,20.01 8.41,8.41 15.08,18.27 20.01,29.56 4.93,11.3 7.39,23.44 7.39,36.42 0,6.97 -0.72,13.7 -2.16,20.19l-0.36 0.72 -91.58 0 -23.08 -36.77 68.51 0c-3.37,-10.1 -8.96,-18.39 -16.77,-24.88 -7.81,-6.49 -17.01,-9.74 -27.58,-9.74 -6.49,0 -12.62,1.32 -18.39,3.97 -5.77,2.64 -10.76,6.13 -14.96,10.57 -4.21,4.45 -7.52,9.74 -9.92,15.81 -2.4,6.13 -3.61,12.74 -3.61,19.95 0,5.53 1.09,11.18 3.25,17.07 2.16,5.89 5.29,11.17 9.37,15.98 4.09,4.81 9.02,8.78 14.79,12.02 5.77,3.25 12.26,4.87 19.47,4.87 6.49,0 12.44,-0.9 17.84,-2.71 5.41,-1.8 10.52,-5.83 15.33,-12.08l0.36 -0.36 0.72 0.36 41.82 18.39 -0.72 0.78c-8.65,12.08 -19.65,21.58 -32.99,28.37 -13.34,6.79 -27.46,10.15 -42.36,10.15 -12.98,0 -25.18,-2.4 -36.6,-7.21 -11.42,-4.8 -21.33,-11.41 -29.75,-19.83 -8.41,-8.41 -15.08,-18.27 -20.01,-29.56 -4.92,-11.3 -7.39,-23.32 -7.39,-36.06 0,-12.98 2.47,-25.12 7.39,-36.42 4.93,-11.29 11.6,-21.15 20.01,-29.56 8.42,-8.41 18.33,-15.09 29.75,-20.01 11.42,-4.93 23.62,-7.39 36.6,-7.39zm187.12 76.07c7.94,2.65 15.21,5.35 21.82,8.12 6.61,2.76 12.38,6.07 17.31,9.91 4.92,3.85 8.77,8.47 11.53,13.88 2.77,5.41 4.15,11.84 4.15,19.29l0 0.36c0,18.27 -6.07,32.57 -18.21,42.91 -12.14,10.34 -29.14,15.5 -51.02,15.5 -13.7,0 -27.16,-2.34 -40.38,-7.09 -13.22,-4.74 -25.6,-11.47 -37.14,-20.19l-0.36 -0.36 0.36 -0.36 24.52 -38.7 0.36 0.36c7.21,7.69 15.38,13.52 24.52,17.49 9.13,3.96 18.87,5.95 29.2,5.95 14.19,0 21.28,-4.57 21.28,-13.64 0,-4.33 -2.29,-7.58 -6.85,-9.74 -4.57,-2.16 -9.98,-4.21 -16.23,-6.13 -1.2,-0.48 -2.34,-0.78 -3.42,-0.9 -1.09,-0.12 -2.23,-0.42 -3.43,-0.9 -7.21,-1.92 -14.42,-4.03 -21.63,-6.25 -7.21,-2.28 -13.7,-5.41 -19.47,-9.38 -5.77,-3.96 -10.52,-9.01 -14.25,-15.08 -3.72,-6.13 -5.58,-14 -5.58,-23.56l0 -0.72c0,-8.41 1.56,-16.1 4.68,-23.01 3.13,-6.97 7.57,-12.98 13.34,-18.03 5.77,-4.99 12.74,-8.89 20.92,-11.66 8.17,-2.76 17.18,-4.14 27.04,-4.14 11.54,0 23.19,1.74 34.97,5.22 11.78,3.49 22.72,8.6 32.81,15.33l0 0.72 -21.99 40.02 -0.36 -0.36c-5.53,-5.53 -12.38,-9.92 -20.55,-13.16 -8.18,-3.25 -16.83,-4.87 -25.96,-4.87 -1.69,0 -3.61,0.12 -5.77,0.36 -2.17,0.24 -4.15,0.84 -5.95,1.81 -1.8,0.96 -3.31,2.22 -4.51,3.78 -1.2,1.56 -1.8,3.79 -1.8,6.67 0,2.17 0.96,4.15 2.88,5.95 1.93,1.8 4.39,3.49 7.39,5.05 3.01,1.56 6.37,3.06 10.1,4.51 3.73,1.44 7.39,2.76 11,3.96 0.72,0 1.5,0.12 2.34,0.36 0.84,0.24 1.62,0.48 2.34,0.72z"/>
 </g>
</svg>
